<svg width="974" height="1879" xmlns:xlink="http://www.w3.org/1999/xlink" viewBox="0 0 974 1879" xmlns="http://www.w3.org/2000/svg" xmlns:ev="http://www.w3.org/2001/xml-events"><defs/><g transform="translate(5.5,5.5)" id="page1"><rect y="0" width="964" height="1869" x="0" fill="#ffffff"/><path d="M848.8,1777.0L848.8,.0L.0,.0L.0,1777.0L848.8,1777.0z" stroke="#323232" transform="translate(76.25,53.00)" fill-rule="nonzero" fill="#ffffff" id="shape1"/><g transform="translate(39.00,39.00)" id="shape2"><text xml:space="preserve" style="fill:#191919;font-family:Microsoft YaHei;font-size:14.00pt;font-weight:bold"><tspan y="47.0" x="44.0">init</tspan></text></g><path d="M767.0,586.0L767.0,.0L.0,.0L.0,586.0L767.0,586.0z" stroke="#323232" transform="translate(111.00,100.00)" fill-rule="nonzero" fill="#ffffff" id="shape3"/><g transform="translate(95.00,100.00)" id="shape4"><text xml:space="preserve" style="fill:#191919;font-family:Microsoft YaHei;font-size:12.00pt;font-weight:bold"><tspan y="30.0" x="28.5">prepare</tspan></text></g><g transform="translate(344.00,218.13)" id="shape5"><path d="M50.0,71.9L100.0,35.9L50.0,.0L.0,35.9L50.0,71.9z" stroke="#323232" fill-rule="nonzero" fill="#df7746"/><text xml:space="preserve" style="fill:#191919;font-family:Microsoft YaHei;font-size:10.00pt"><tspan y="31.9" x="24.0">询问是否</tspan><tspan y="50.9" x="24.0">继续创建</tspan></text></g><g transform="translate(344.00,578.00)" id="shape6"><path d="M120.0,38.0L120.0,.0L.0,.0L.0,38.0L120.0,38.0z" stroke="#323232" fill-rule="nonzero" fill="#ffce80"/><text xml:space="preserve" style="fill:#191919;font-family:Microsoft YaHei;font-size:10.00pt"><tspan y="24.5" x="21.0">填写项目名称</tspan></text></g><g transform="translate(193.00,157.00)" id="shape7"><path d="M81.0,21.0L81.0,7.0C81.0,3.1,77.9,.0,74.0,.0L7.0,.0C3.1,.0,.0,3.1,.0,7.0L.0,21.0C.0,24.9,3.1,28.0,7.0,28.0L74.0,28.0C77.9,28.0,81.0,24.9,81.0,21.0z" stroke="#323232" fill-rule="nonzero" fill="#92d050"/><text xml:space="preserve" style="fill:#191919;font-family:Microsoft YaHei;font-size:10.00pt"><tspan y="19.5" x="26.5">start</tspan></text></g><g transform="translate(183.50,218.13)" id="shape8"><path d="M50.0,71.9L100.0,35.9L50.0,.0L.0,35.9L50.0,71.9z" stroke="#323232" fill-rule="nonzero" fill="#df7746"/><text xml:space="preserve" style="fill:#191919;font-family:Microsoft YaHei;font-size:10.00pt"><tspan y="31.9" x="24.0">当前目录</tspan><tspan y="50.9" x="24.0">是否为空</tspan></text></g><g transform="translate(183.50,346.00)" id="shape9"><path d="M50.0,71.9L100.0,35.9L50.0,.0L.0,35.9L50.0,71.9z" stroke="#323232" fill-rule="nonzero" fill="#df7746"/><text xml:space="preserve" style="fill:#191919;font-family:Microsoft YaHei;font-size:10.00pt"><tspan y="31.9" x="24.0">是否为强</tspan><tspan y="50.9" x="30.5">制更新</tspan></text></g><g transform="translate(233.50,185.00)" id="shape10"><path stroke="#191919" d="M.0,.0L.0,27.0" fill="none"/><path stroke="#191919" d="M3.0,27.0L.0,33.0L-3.0,27.0L3.0,27.0" stroke-width="1" stroke-linecap="round" fill="#191919"/></g><g transform="translate(233.50,290.00)" id="shape11"><path stroke="#191919" d="M.0,.0L.0,49.0" fill="none"/><path stroke="#191919" d="M3.0,49.0L.0,55.0L-3.0,49.0L3.0,49.0" stroke-width="1" stroke-linecap="round" fill="#191919"/><rect y="20.2" width="8.0" height="19.0" x="-3.0" fill="#ffffff"/><text xml:space="preserve" style="fill:#191919;font-family:Microsoft YaHei;font-size:10.00pt"><tspan y="35.2" x="-3.0">Y</tspan></text></g><g transform="translate(283.50,254.06)" id="shape12"><path stroke="#191919" d="M.0,.0L55.0,.0" fill="none"/><path stroke="#191919" d="M55.0,-3.0L61.0,.0L55.0,3.0L55.0,-3.0" stroke-width="1" stroke-linecap="round" fill="#191919"/><rect y="-9.5" width="11.0" height="19.0" x="24.3" fill="#ffffff"/><text xml:space="preserve" style="fill:#191919;font-family:Microsoft YaHei;font-size:10.00pt"><tspan y="5.5" x="24.3">N</tspan></text></g><g transform="translate(394.00,290.00)" id="shape13"><path stroke="#191919" d="M.0,.0L.0,90.0L-105.0,90.0" fill="none"/><path stroke="#191919" d="M-105.0,93.0L-111.0,90.0L-105.0,87.0L-105.0,93.0" stroke-width="1" stroke-linecap="round" fill="#191919"/><rect y="26.2" width="8.0" height="19.0" x="-3.0" fill="#ffffff"/><text xml:space="preserve" style="fill:#191919;font-family:Microsoft YaHei;font-size:10.00pt"><tspan y="41.2" x="-3.0">Y</tspan></text></g><g transform="translate(173.50,473.88)" id="shape14"><path d="M120.0,38.0L120.0,.0L.0,.0L.0,38.0L120.0,38.0z" stroke="#323232" fill-rule="nonzero" fill="#ffce80"/><text xml:space="preserve" style="fill:#191919;font-family:Microsoft YaHei;font-size:10.00pt"><tspan y="24.5" x="21.0">清空当前目录</tspan></text></g><g transform="translate(233.50,417.88)" id="shape15"><path stroke="#191919" d="M.0,.0L.0,50.0" fill="none"/><path stroke="#191919" d="M3.0,50.0L.0,56.0L-3.0,50.0L3.0,50.0" stroke-width="1" stroke-linecap="round" fill="#191919"/><rect y="16.3" width="8.0" height="19.0" x="-3.0" fill="#ffffff"/><text xml:space="preserve" style="fill:#191919;font-family:Microsoft YaHei;font-size:10.00pt"><tspan y="31.3" x="-3.0">Y</tspan></text></g><g transform="translate(344.00,465.88)" id="shape16"><path d="M120.0,54.0L120.0,.0L.0,.0L.0,54.0L120.0,54.0z" stroke="#323232" fill-rule="nonzero" fill="#ffce80"/><text xml:space="preserve" style="fill:#191919;font-family:Microsoft YaHei;font-size:10.00pt"><tspan y="23.0" x="21.0">获取项目类型</tspan><tspan y="42.0" x="18.0">（项目/组件）</tspan></text></g><g transform="translate(293.50,492.88)" id="shape17"><path stroke="#191919" d="M.0,.0L45.0,.0" fill="none"/><path stroke="#191919" d="M45.0,-3.0L51.0,.0L45.0,3.0L45.0,-3.0" stroke-width="1" stroke-linecap="round" fill="#191919"/></g><g transform="translate(257.75,400.45)" id="shape18"><path stroke="#191919" d="M.0,.0L.0,45.0L106.0,45.0L106.0,59.0" fill="none"/><path stroke="#191919" d="M109.0,59.0L106.0,65.0L103.0,59.0L109.0,59.0" stroke-width="1" stroke-linecap="round" fill="#191919"/><rect y="35.5" width="11.0" height="19.0" x="44.4" fill="#ffffff"/><text xml:space="preserve" style="fill:#191919;font-family:Microsoft YaHei;font-size:10.00pt"><tspan y="50.5" x="44.4">N</tspan></text></g><g transform="translate(514.50,473.88)" id="shape19"><path d="M120.0,38.0L120.0,.0L.0,.0L.0,38.0L120.0,38.0z" stroke="#323232" fill-rule="nonzero" fill="#ffce80"/><text xml:space="preserve" style="fill:#191919;font-family:Microsoft YaHei;font-size:10.00pt"><tspan y="24.5" x="27.5">填写版本号</tspan></text></g><g transform="translate(685.00,451.05)" id="shape20"><path d="M60.0,83.7L120.0,41.8L60.0,.0L.0,41.8L60.0,83.7z" stroke="#323232" fill-rule="nonzero" fill="#df7746"/><text xml:space="preserve" style="fill:#191919;font-family:Microsoft YaHei;font-size:10.00pt"><tspan y="37.8" x="27.5">项目类型是</tspan><tspan y="56.8" x="34.0">否为组件</tspan></text></g><g transform="translate(634.50,492.88)" id="shape21"><path stroke="#191919" d="M.0,.0L45.0,.0" fill="none"/><path stroke="#191919" d="M45.0,-3.0L51.0,.0L45.0,3.0L45.0,-3.0" stroke-width="1" stroke-linecap="round" fill="#191919"/></g><g transform="translate(704.50,240.06)" id="shape22"><path d="M81.0,21.0L81.0,7.0C81.0,3.1,77.9,.0,74.0,.0L7.0,.0C3.1,.0,.0,3.1,.0,7.0L.0,21.0C.0,24.9,3.1,28.0,7.0,28.0L74.0,28.0C77.9,28.0,81.0,24.9,81.0,21.0z" stroke="#323232" fill-rule="nonzero" fill="#92d050"/><text xml:space="preserve" style="fill:#191919;font-family:Microsoft YaHei;font-size:10.00pt"><tspan y="19.5" x="29.0">end</tspan></text></g><g transform="translate(444.00,254.06)" id="shape23"><path stroke="#191919" d="M.0,.0L254.0,.0" fill="none"/><path stroke="#191919" d="M254.0,-3.0L260.0,.0L254.0,3.0L254.0,-3.0" stroke-width="1" stroke-linecap="round" fill="#191919"/><rect y="-9.5" width="11.0" height="19.0" x="124.0" fill="#ffffff"/><text xml:space="preserve" style="fill:#191919;font-family:Microsoft YaHei;font-size:10.00pt"><tspan y="5.5" x="124.0">N</tspan></text></g><g transform="translate(745.00,451.05)" id="shape24"><path stroke="#191919" d="M.0,.0L.0,-177.0" fill="none"/><path stroke="#191919" d="M-3.0,-177.0L.0,-183.0L3.0,-177.0L-3.0,-177.0" stroke-width="1" stroke-linecap="round" fill="#191919"/><rect y="-95.5" width="11.0" height="19.0" x="-4.5" fill="#ffffff"/><text xml:space="preserve" style="fill:#191919;font-family:Microsoft YaHei;font-size:10.00pt"><tspan y="-80.5" x="-4.5">N</tspan></text></g><g transform="translate(405.20,519.88)" id="shape25"><path stroke="#191919" d="M.0,.0L.0,53.0" fill="none"/><path stroke="#191919" d="M3.0,53.0L.0,59.0L-3.0,53.0L3.0,53.0" stroke-width="1" stroke-linecap="round" fill="#191919"/></g><g transform="translate(514.50,570.00)" id="shape26"><path d="M120.0,54.0L120.0,.0L.0,.0L.0,54.0L120.0,54.0z" stroke="#323232" fill-rule="nonzero" fill="#ffce80"/><text xml:space="preserve" style="fill:#191919;font-family:Microsoft YaHei;font-size:10.00pt"><tspan y="23.0" x="34.0">项目名称</tspan><tspan y="42.0" x="39.0">format</tspan></text></g><g transform="translate(685.00,578.00)" id="shape27"><path d="M120.0,38.0L120.0,.0L.0,.0L.0,38.0L120.0,38.0z" stroke="#323232" fill-rule="nonzero" fill="#ffce80"/><text xml:space="preserve" style="fill:#191919;font-family:Microsoft YaHei;font-size:10.00pt"><tspan y="24.5" x="21.0">填写描述信息</tspan></text></g><g transform="translate(745.00,534.70)" id="shape28"><path stroke="#191919" d="M.0,.0L.0,38.0" fill="none"/><path stroke="#191919" d="M3.0,38.0L.0,44.0L-3.0,38.0L3.0,38.0" stroke-width="1" stroke-linecap="round" fill="#191919"/><rect y="11.5" width="8.0" height="19.0" x="-3.0" fill="#ffffff"/><text xml:space="preserve" style="fill:#191919;font-family:Microsoft YaHei;font-size:10.00pt"><tspan y="26.5" x="-3.0">Y</tspan></text></g><g transform="translate(464.00,597.00)" id="shape29"><path stroke="#191919" d="M.0,.0L44.0,.0" fill="none"/><path stroke="#191919" d="M44.0,-3.0L50.0,.0L44.0,3.0L44.0,-3.0" stroke-width="1" stroke-linecap="round" fill="#191919"/></g><g transform="translate(574.50,570.00)" id="shape30"><path stroke="#191919" d="M.0,.0L.0,-53.0" fill="none"/><path stroke="#191919" d="M-3.0,-53.0L.0,-59.0L3.0,-53.0L-3.0,-53.0" stroke-width="1" stroke-linecap="round" fill="#191919"/></g><g transform="translate(574.50,570.00)" id="shape31"><path stroke="#191919" d="M.0,.0L.0,-53.0" fill="none"/><path stroke="#191919" d="M-3.0,-53.0L.0,-59.0L3.0,-53.0L-3.0,-53.0" stroke-width="1" stroke-linecap="round" fill="#191919"/></g><g transform="translate(805.00,597.00)" id="shape32"><path stroke="#191919" d="M.0,.0L28.0,.0L28.0,-343.0L-14.0,-343.0" fill="none"/><path stroke="#191919" d="M-14.0,-340.0L-20.0,-343.0L-14.0,-346.0L-14.0,-340.0" stroke-width="1" stroke-linecap="round" fill="#191919"/></g><path d="M767.0,548.0L767.0,.0L.0,.0L.0,548.0L767.0,548.0z" stroke="#323232" transform="translate(111.00,724.00)" fill-rule="nonzero" fill="#ffffff" id="shape33"/><g transform="translate(111.00,733.00)" id="shape34"><text xml:space="preserve" style="fill:#191919;font-family:Microsoft YaHei;font-size:12.00pt;font-weight:bold"><tspan y="28.5" x="18.5">downloadTemplate</tspan></text></g><g transform="translate(188.00,800.00)" id="shape35"><path d="M81.0,21.0L81.0,7.0C81.0,3.1,77.9,.0,74.0,.0L7.0,.0C3.1,.0,.0,3.1,.0,7.0L.0,21.0C.0,24.9,3.1,28.0,7.0,28.0L74.0,28.0C77.9,28.0,81.0,24.9,81.0,21.0z" stroke="#323232" fill-rule="nonzero" fill="#92d050"/><text xml:space="preserve" style="fill:#191919;font-family:Microsoft YaHei;font-size:10.00pt"><tspan y="19.5" x="26.5">start</tspan></text></g><g transform="translate(346.50,867.00)" id="shape36"><path d="M120.0,54.0L120.0,.0L.0,.0L.0,54.0L120.0,54.0z" stroke="#323232" fill-rule="nonzero" fill="#ffce80"/><text xml:space="preserve" style="fill:#191919;font-family:Microsoft YaHei;font-size:10.00pt"><tspan y="23.0" x="47.0">生成</tspan><tspan y="42.0" x="21.5">Package对象</tspan></text></g><g transform="translate(524.50,858.06)" id="shape37"><path d="M50.0,71.9L100.0,35.9L50.0,.0L.0,35.9L50.0,71.9z" stroke="#323232" fill-rule="nonzero" fill="#df7746"/><text xml:space="preserve" style="fill:#191919;font-family:Microsoft YaHei;font-size:10.00pt"><tspan y="31.9" x="24.5">Package</tspan><tspan y="50.9" x="24.0">是否存在</tspan></text></g><g transform="translate(682.50,875.00)" id="shape38"><path d="M120.0,38.0L120.0,.0L.0,.0L.0,38.0L120.0,38.0z" stroke="#323232" fill-rule="nonzero" fill="#ffce80"/><text xml:space="preserve" style="fill:#191919;font-family:Microsoft YaHei;font-size:10.00pt"><tspan y="24.5" x="21.5">更新package</tspan></text></g><g transform="translate(168.50,867.00)" id="shape39"><path d="M120.0,54.0L120.0,.0L.0,.0L.0,54.0L120.0,54.0z" stroke="#323232" fill-rule="nonzero" fill="#ffce80"/><text xml:space="preserve" style="fill:#191919;font-family:Microsoft YaHei;font-size:10.00pt"><tspan y="23.0" x="18.0">选择项目/组件</tspan><tspan y="42.0" x="34.0">代码模板</tspan></text></g><g transform="translate(514.50,989.00)" id="shape40"><path d="M120.0,38.0L120.0,.0L.0,.0L.0,38.0L120.0,38.0z" stroke="#323232" fill-rule="nonzero" fill="#ffce80"/><text xml:space="preserve" style="fill:#191919;font-family:Microsoft YaHei;font-size:10.00pt"><tspan y="24.5" x="21.5">安装Package</tspan></text></g><g transform="translate(356.50,972.06)" id="shape41"><path d="M50.0,71.9L100.0,35.9L50.0,.0L.0,35.9L50.0,71.9z" stroke="#323232" fill-rule="nonzero" fill="#df7746"/><text xml:space="preserve" style="fill:#191919;font-family:Microsoft YaHei;font-size:10.00pt"><tspan y="31.9" x="24.0">检查模板</tspan><tspan y="50.9" x="24.0">是否存在</tspan></text></g><g transform="translate(168.50,981.00)" id="shape42"><path d="M120.0,54.0L120.0,.0L.0,.0L.0,54.0L120.0,54.0z" stroke="#323232" fill-rule="nonzero" fill="#d36efa"/><text xml:space="preserve" style="fill:#191919;font-family:Microsoft YaHei;font-size:10.00pt"><tspan y="23.0" x="27.5">模板不存在</tspan><tspan y="42.0" x="34.0">终止执行</tspan></text></g><g transform="translate(366.00,1197.00)" id="shape43"><path d="M81.0,21.0L81.0,7.0C81.0,3.1,77.9,.0,74.0,.0L7.0,.0C3.1,.0,.0,3.1,.0,7.0L.0,21.0C.0,24.9,3.1,28.0,7.0,28.0L74.0,28.0C77.9,28.0,81.0,24.9,81.0,21.0z" stroke="#323232" fill-rule="nonzero" fill="#92d050"/><text xml:space="preserve" style="fill:#191919;font-family:Microsoft YaHei;font-size:10.00pt"><tspan y="19.5" x="29.0">end</tspan></text></g><g transform="translate(228.50,828.00)" id="shape44"><path stroke="#191919" d="M.0,.0L.0,33.0" fill="none"/><path stroke="#191919" d="M3.0,33.0L.0,39.0L-3.0,33.0L3.0,33.0" stroke-width="1" stroke-linecap="round" fill="#191919"/></g><g transform="translate(288.50,894.00)" id="shape45"><path stroke="#191919" d="M.0,.0L52.0,.0" fill="none"/><path stroke="#191919" d="M52.0,-3.0L58.0,.0L52.0,3.0L52.0,-3.0" stroke-width="1" stroke-linecap="round" fill="#191919"/></g><g transform="translate(466.50,894.00)" id="shape46"><path stroke="#191919" d="M.0,.0L52.0,.0" fill="none"/><path stroke="#191919" d="M52.0,-3.0L58.0,.0L52.0,3.0L52.0,-3.0" stroke-width="1" stroke-linecap="round" fill="#191919"/></g><g transform="translate(624.50,894.00)" id="shape47"><path stroke="#191919" d="M.0,.0L52.0,.0" fill="none"/><path stroke="#191919" d="M52.0,-3.0L58.0,.0L52.0,3.0L52.0,-3.0" stroke-width="1" stroke-linecap="round" fill="#191919"/><rect y="-9.5" width="8.0" height="19.0" x="25.8" fill="#ffffff"/><text xml:space="preserve" style="fill:#191919;font-family:Microsoft YaHei;font-size:10.00pt"><tspan y="5.5" x="25.8">Y</tspan></text></g><g transform="translate(574.50,929.94)" id="shape48"><path stroke="#191919" d="M.0,.0L.0,54.0" fill="none"/><path stroke="#191919" d="M3.0,54.0L.0,60.0L-3.0,54.0L3.0,54.0" stroke-width="1" stroke-linecap="round" fill="#191919"/><rect y="18.0" width="11.0" height="19.0" x="-4.5" fill="#ffffff"/><text xml:space="preserve" style="fill:#191919;font-family:Microsoft YaHei;font-size:10.00pt"><tspan y="33.0" x="-4.5">N</tspan></text></g><g transform="translate(514.50,1008.00)" id="shape49"><path stroke="#191919" d="M.0,.0L-52.0,.0" fill="none"/><path stroke="#191919" d="M-52.0,3.0L-58.0,.0L-52.0,-3.0L-52.0,3.0" stroke-width="1" stroke-linecap="round" fill="#191919"/></g><g transform="translate(356.50,1008.00)" id="shape50"><path stroke="#191919" d="M.0,.0L-62.0,.0" fill="none"/><path stroke="#191919" d="M-62.0,3.0L-68.0,.0L-62.0,-3.0L-62.0,3.0" stroke-width="1" stroke-linecap="round" fill="#191919"/><rect y="-9.5" width="11.0" height="19.0" x="-35.7" fill="#ffffff"/><text xml:space="preserve" style="fill:#191919;font-family:Microsoft YaHei;font-size:10.00pt"><tspan y="5.5" x="-35.7">N</tspan></text></g><g transform="translate(224.30,1035.00)" id="shape51"><path stroke="#191919" d="M.0,.0L.0,176.0L136.0,176.0" fill="none"/><path stroke="#191919" d="M136.0,173.0L142.0,176.0L136.0,179.0L136.0,173.0" stroke-width="1" stroke-linecap="round" fill="#191919"/></g><g transform="translate(346.50,1111.00)" id="shape52"><path d="M120.0,38.0L120.0,.0L.0,.0L.0,38.0L120.0,38.0z" stroke="#323232" fill-rule="nonzero" fill="#ffce80"/><text xml:space="preserve" style="fill:#191919;font-family:Microsoft YaHei;font-size:10.00pt"><tspan y="24.5" x="34.0">下载模板</tspan></text></g><g transform="translate(406.50,1043.94)" id="shape53"><path stroke="#191919" d="M.0,.0L.0,62.0" fill="none"/><path stroke="#191919" d="M3.0,62.0L.0,68.0L-3.0,62.0L3.0,62.0" stroke-width="1" stroke-linecap="round" fill="#191919"/><rect y="26.0" width="8.0" height="19.0" x="-3.0" fill="#ffffff"/><text xml:space="preserve" style="fill:#191919;font-family:Microsoft YaHei;font-size:10.00pt"><tspan y="41.0" x="-3.0">Y</tspan></text></g><g transform="translate(406.50,1149.00)" id="shape54"><path stroke="#191919" d="M.0,.0L.0,42.0" fill="none"/><path stroke="#191919" d="M3.0,42.0L.0,48.0L-3.0,42.0L3.0,42.0" stroke-width="1" stroke-linecap="round" fill="#191919"/></g><path d="M767.0,463.0L767.0,.0L.0,.0L.0,463.0L767.0,463.0z" stroke="#323232" transform="translate(111.00,1329.00)" fill-rule="nonzero" fill="#ffffff" id="shape55"/><g transform="translate(93.50,1329.00)" id="shape56"><text xml:space="preserve" style="fill:#191919;font-family:Microsoft YaHei;font-size:12.00pt;font-weight:bold"><tspan y="28.5" x="35.0">installTemplate</tspan></text></g><g transform="translate(186.50,1397.00)" id="shape57"><path d="M81.0,21.0L81.0,7.0C81.0,3.1,77.9,.0,74.0,.0L7.0,.0C3.1,.0,.0,3.1,.0,7.0L.0,21.0C.0,24.9,3.1,28.0,7.0,28.0L74.0,28.0C77.9,28.0,81.0,24.9,81.0,21.0z" stroke="#323232" fill-rule="nonzero" fill="#92d050"/><text xml:space="preserve" style="fill:#191919;font-family:Microsoft YaHei;font-size:10.00pt"><tspan y="19.5" x="26.5">start</tspan></text></g><g transform="translate(177.00,1457.00)" id="shape58"><path d="M50.0,71.9L100.0,35.9L50.0,.0L.0,35.9L50.0,71.9z" stroke="#323232" fill-rule="nonzero" fill="#df7746"/><text xml:space="preserve" style="fill:#191919;font-family:Microsoft YaHei;font-size:10.00pt"><tspan y="31.9" x="24.0">是否为自</tspan><tspan y="50.9" x="24.0">定义模板</tspan></text></g><g transform="translate(228.14,1425.00)" id="shape59"><path stroke="#191919" d="M.0,.0L.0,26.0" fill="none"/><path stroke="#191919" d="M3.0,26.0L.0,32.0L-3.0,26.0L3.0,26.0" stroke-width="1" stroke-linecap="round" fill="#191919"/></g><g transform="translate(349.25,1465.94)" id="shape60"><path d="M120.0,54.0L120.0,.0L.0,.0L.0,54.0L120.0,54.0z" stroke="#323232" fill-rule="nonzero" fill="#ffce80"/><text xml:space="preserve" style="fill:#191919;font-family:Microsoft YaHei;font-size:10.00pt"><tspan y="23.0" x="21.0">拷贝模板代码</tspan><tspan y="42.0" x="27.5">至当前目录</tspan></text></g><g transform="translate(541.50,1465.94)" id="shape61"><path d="M120.0,54.0L120.0,.0L.0,.0L.0,54.0L120.0,54.0z" stroke="#323232" fill-rule="nonzero" fill="#ffce80"/><text xml:space="preserve" style="fill:#191919;font-family:Microsoft YaHei;font-size:10.00pt"><tspan y="23.0" x="26.0">生成ejs渲染</tspan><tspan y="42.0" x="21.0">忽略文件目录</tspan></text></g><g transform="translate(727.00,1473.94)" id="shape62"><path d="M120.0,38.0L120.0,.0L.0,.0L.0,38.0L120.0,38.0z" stroke="#323232" fill-rule="nonzero" fill="#ffce80"/><text xml:space="preserve" style="fill:#191919;font-family:Microsoft YaHei;font-size:10.00pt"><tspan y="24.5" x="26.0">ejs模板渲染</tspan></text></g><g transform="translate(277.00,1492.94)" id="shape63"><path stroke="#191919" d="M.0,.0L66.0,.0" fill="none"/><path stroke="#191919" d="M66.0,-3.0L72.0,.0L66.0,3.0L66.0,-3.0" stroke-width="1" stroke-linecap="round" fill="#191919"/><rect y="-9.5" width="11.0" height="19.0" x="26.8" fill="#ffffff"/><text xml:space="preserve" style="fill:#191919;font-family:Microsoft YaHei;font-size:10.00pt"><tspan y="5.5" x="26.8">N</tspan></text></g><g transform="translate(469.25,1492.94)" id="shape64"><path stroke="#191919" d="M.0,.0L66.0,.0" fill="none"/><path stroke="#191919" d="M66.0,-3.0L72.0,.0L66.0,3.0L66.0,-3.0" stroke-width="1" stroke-linecap="round" fill="#191919"/></g><g transform="translate(661.50,1492.94)" id="shape65"><path stroke="#191919" d="M.0,.0L60.0,.0" fill="none"/><path stroke="#191919" d="M60.0,-3.0L66.0,.0L60.0,3.0L60.0,-3.0" stroke-width="1" stroke-linecap="round" fill="#191919"/></g><g transform="translate(167.00,1585.00)" id="shape66"><path d="M120.0,54.0L120.0,.0L.0,.0L.0,54.0L120.0,54.0z" stroke="#323232" fill-rule="nonzero" fill="#ffce80"/><text xml:space="preserve" style="fill:#191919;font-family:Microsoft YaHei;font-size:10.00pt"><tspan y="23.0" x="14.5">查询自定义模板</tspan><tspan y="42.0" x="34.0">入口文件</tspan></text></g><g transform="translate(359.25,1576.06)" id="shape67"><path d="M50.0,71.9L100.0,35.9L50.0,.0L.0,35.9L50.0,71.9z" stroke="#323232" fill-rule="nonzero" fill="#df7746"/><text xml:space="preserve" style="fill:#191919;font-family:Microsoft YaHei;font-size:10.00pt"><tspan y="31.9" x="24.0">入口文件</tspan><tspan y="50.9" x="24.0">是否存在</tspan></text></g><g transform="translate(541.50,1593.00)" id="shape68"><path d="M120.0,38.0L120.0,.0L.0,.0L.0,38.0L120.0,38.0z" stroke="#323232" fill-rule="nonzero" fill="#ffce80"/><text xml:space="preserve" style="fill:#191919;font-family:Microsoft YaHei;font-size:10.00pt"><tspan y="24.5" x="21.0">执行入口文件</tspan></text></g><g transform="translate(727.00,1593.00)" id="shape69"><path d="M120.0,38.0L120.0,.0L.0,.0L.0,38.0L120.0,38.0z" stroke="#323232" fill-rule="nonzero" fill="#ffce80"/><text xml:space="preserve" style="fill:#191919;font-family:Microsoft YaHei;font-size:10.00pt"><tspan y="24.5" x="21.0">执行启动命令</tspan></text></g><g transform="translate(349.25,1712.06)" id="shape70"><path d="M120.0,38.0L120.0,.0L.0,.0L.0,38.0L120.0,38.0z" stroke="#323232" fill-rule="nonzero" fill="#d36efa"/><text xml:space="preserve" style="fill:#191919;font-family:Microsoft YaHei;font-size:10.00pt"><tspan y="24.5" x="34.0">终止执行</tspan></text></g><g transform="translate(561.00,1717.06)" id="shape71"><path d="M81.0,21.0L81.0,7.0C81.0,3.1,77.9,.0,74.0,.0L7.0,.0C3.1,.0,.0,3.1,.0,7.0L.0,21.0C.0,24.9,3.1,28.0,7.0,28.0L74.0,28.0C77.9,28.0,81.0,24.9,81.0,21.0z" stroke="#323232" fill-rule="nonzero" fill="#92d050"/><text xml:space="preserve" style="fill:#191919;font-family:Microsoft YaHei;font-size:10.00pt"><tspan y="19.5" x="29.0">end</tspan></text></g><g transform="translate(409.25,1647.94)" id="shape72"><path stroke="#191919" d="M.0,.0L.0,59.0" fill="none"/><path stroke="#191919" d="M3.0,59.0L.0,65.0L-3.0,59.0L3.0,59.0" stroke-width="1" stroke-linecap="round" fill="#191919"/><rect y="21.0" width="11.0" height="19.0" x="-4.5" fill="#ffffff"/><text xml:space="preserve" style="fill:#191919;font-family:Microsoft YaHei;font-size:10.00pt"><tspan y="36.0" x="-4.5">N</tspan></text></g><g transform="translate(227.00,1528.88)" id="shape73"><path stroke="#191919" d="M.0,.0L.0,51.0" fill="none"/><path stroke="#191919" d="M3.0,51.0L.0,57.0L-3.0,51.0L3.0,51.0" stroke-width="1" stroke-linecap="round" fill="#191919"/><rect y="16.3" width="8.0" height="19.0" x="-3.0" fill="#ffffff"/><text xml:space="preserve" style="fill:#191919;font-family:Microsoft YaHei;font-size:10.00pt"><tspan y="31.3" x="-3.0">Y</tspan></text></g><g transform="translate(287.00,1612.00)" id="shape74"><path stroke="#191919" d="M.0,.0L66.0,.0" fill="none"/><path stroke="#191919" d="M66.0,-3.0L72.0,.0L66.0,3.0L66.0,-3.0" stroke-width="1" stroke-linecap="round" fill="#191919"/></g><g transform="translate(459.25,1612.00)" id="shape75"><path stroke="#191919" d="M.0,.0L76.0,.0" fill="none"/><path stroke="#191919" d="M76.0,-3.0L82.0,.0L76.0,3.0L76.0,-3.0" stroke-width="1" stroke-linecap="round" fill="#191919"/><rect y="-9.5" width="8.0" height="19.0" x="41.3" fill="#ffffff"/><text xml:space="preserve" style="fill:#191919;font-family:Microsoft YaHei;font-size:10.00pt"><tspan y="5.5" x="41.3">Y</tspan></text></g><g transform="translate(788.20,1511.94)" id="shape76"><path stroke="#191919" d="M.0,.0L.0,76.0" fill="none"/><path stroke="#191919" d="M3.0,76.0L.0,82.0L-3.0,76.0L3.0,76.0" stroke-width="1" stroke-linecap="round" fill="#191919"/></g><g transform="translate(787.00,1631.00)" id="shape77"><path stroke="#191919" d="M.0,.0L.0,100.0L-139.0,100.0" fill="none"/><path stroke="#191919" d="M-139.0,103.0L-145.0,100.0L-139.0,97.0L-139.0,103.0" stroke-width="1" stroke-linecap="round" fill="#191919"/></g><g transform="translate(469.25,1731.06)" id="shape78"><path stroke="#191919" d="M.0,.0L86.0,.0" fill="none"/><path stroke="#191919" d="M86.0,-3.0L92.0,.0L86.0,3.0L86.0,-3.0" stroke-width="1" stroke-linecap="round" fill="#191919"/></g><g transform="translate(602.22,1631.00)" id="shape79"><path stroke="#191919" d="M.0,.0L.0,80.0" fill="none"/><path stroke="#191919" d="M3.0,80.0L.0,86.0L-3.0,80.0L3.0,80.0" stroke-width="1" stroke-linecap="round" fill="#191919"/></g></g></svg>