<svg width="1761" height="1086" xmlns:xlink="http://www.w3.org/1999/xlink" viewBox="0 0 1761 1086" xmlns="http://www.w3.org/2000/svg" xmlns:ev="http://www.w3.org/2001/xml-events"><defs/><g transform="translate(5.5,5.5)" id="page1"><rect y="0" width="1751" height="1076" x="0" fill="#ffffff"/><path d="M491.0,182.0L491.0,7.0C491.0,3.1,487.9,.0,484.0,.0L7.0,.0C3.1,.0,.0,3.1,.0,7.0L.0,182.0C.0,185.9,3.1,189.0,7.0,189.0L484.0,189.0C487.9,189.0,491.0,185.9,491.0,182.0z" stroke="#323232" transform="translate(883.74,307.00)" fill-rule="nonzero" fill="#ffffff" id="shape1"/><g transform="translate(1004.94,285.00)" id="shape2"><path d="M22.0,44.0L241.1,44.0L241.1,44.0C253.2,44.0,263.1,34.2,263.1,22.0C263.1,9.8,253.2,.0,241.1,.0L22.0,.0L22.0,.0C9.8,.0,.0,9.8,.0,22.0C.0,34.2,9.8,44.0,22.0,44.0z" stroke="#323232" fill-rule="nonzero" fill="#df7746"/><text xml:space="preserve" style="fill:#191919;font-family:Microsoft YaHei;font-size:14.00pt;font-weight:bold"><tspan y="29.0" x="93.5">发布体系</tspan></text></g><g transform="translate(900.00,401.00)" id="shape3"><path d="M132.0,69.0L132.0,7.0C132.0,3.1,128.9,.0,125.0,.0L7.0,.0C3.1,.0,.0,3.1,.0,7.0L.0,69.0C.0,72.9,3.1,76.0,7.0,76.0L125.0,76.0C128.9,76.0,132.0,72.9,132.0,69.0z" stroke="#323232" fill-rule="nonzero" fill="#ffce80"/><text xml:space="preserve" style="fill:#191919;font-family:Microsoft YaHei;font-size:10.00pt"><tspan y="34.5" style="font-size:12.00pt;font-weight:bold" x="34.0">项目发布</tspan><tspan y="54.5" x="20.5">项目自动化发布</tspan></text></g><g transform="translate(1051.00,401.00)" id="shape4"><path d="M132.0,69.0L132.0,7.0C132.0,3.1,128.9,.0,125.0,.0L7.0,.0C3.1,.0,.0,3.1,.0,7.0L.0,69.0C.0,72.9,3.1,76.0,7.0,76.0L125.0,76.0C128.9,76.0,132.0,72.9,132.0,69.0z" stroke="#323232" fill-rule="nonzero" fill="#ffce80"/><text xml:space="preserve" style="fill:#191919;font-family:Microsoft YaHei;font-size:10.00pt"><tspan y="34.5" style="font-size:12.00pt;font-weight:bold" x="34.0">组件发布</tspan><tspan y="54.5" x="20.5">组件自动化发布</tspan></text></g><g transform="translate(1202.00,401.00)" id="shape5"><path d="M156.0,69.0L156.0,7.0C156.0,3.1,152.9,.0,149.0,.0L7.0,.0C3.1,.0,.0,3.1,.0,7.0L.0,69.0C.0,72.9,3.1,76.0,7.0,76.0L149.0,76.0C152.9,76.0,156.0,72.9,156.0,69.0z" stroke="#323232" fill-rule="nonzero" fill="#ffce80"/><text xml:space="preserve" style="fill:#191919;font-family:Microsoft YaHei;font-size:10.00pt"><tspan y="34.5" style="font-size:12.00pt;font-weight:bold" x="46.0">发布模式</tspan><tspan y="54.5" x="19.5">测试和正式发布模式</tspan></text></g><g transform="translate(274.52,760.50)" id="group6"><path d="M549.5,182.0L549.5,7.0C549.5,3.1,546.3,.0,542.5,.0L7.0,.0C3.1,.0,.0,3.1,.0,7.0L.0,182.0C.0,185.9,3.1,189.0,7.0,189.0L542.5,189.0C546.3,189.0,549.5,185.9,549.5,182.0z" stroke="#323232" fill-rule="nonzero" fill="#ffffff" id="shape7"/><g transform="translate(123.56,-20.50)" id="shape8"><path d="M22.0,44.0L280.4,44.0L280.4,44.0C292.5,44.0,302.4,34.2,302.4,22.0C302.4,9.8,292.5,.0,280.4,.0L22.0,.0L22.0,.0C9.8,.0,.0,9.8,.0,22.0C.0,34.2,9.8,44.0,22.0,44.0z" stroke="#323232" fill-rule="nonzero" fill="#00aeee"/><text xml:space="preserve" style="fill:#191919;font-family:Microsoft YaHei;font-size:14.00pt;font-weight:bold"><tspan y="29.0" x="104.7">OPEN API</tspan></text></g><g transform="translate(44.37,85.50)" id="shape9"><path d="M145.4,65.5L145.4,7.0C145.4,3.1,142.2,.0,138.4,.0L7.0,.0C3.1,.0,.0,3.1,.0,7.0L.0,65.5C.0,69.4,3.1,72.5,7.0,72.5L138.4,72.5C142.2,72.5,145.4,69.4,145.4,65.5z" stroke="#323232" fill-rule="nonzero" fill="#aad3f5"/><text xml:space="preserve" style="fill:#191919;font-family:Microsoft YaHei;font-size:10.00pt"><tspan y="32.8" style="font-size:12.00pt;font-weight:bold" x="20.7">项目/组件模板</tspan><tspan y="52.8" x="20.7">提供项目模板查询</tspan></text></g><g transform="translate(202.06,85.50)" id="shape10"><path d="M145.4,65.5L145.4,7.0C145.4,3.1,142.2,.0,138.4,.0L7.0,.0C3.1,.0,.0,3.1,.0,7.0L.0,65.5C.0,69.4,3.1,72.5,7.0,72.5L138.4,72.5C142.2,72.5,145.4,69.4,145.4,65.5z" stroke="#323232" fill-rule="nonzero" fill="#aad3f5"/><text xml:space="preserve" style="fill:#191919;font-family:Microsoft YaHei;font-size:10.00pt"><tspan y="32.8" style="font-size:12.00pt;font-weight:bold" x="24.7">静态资源查询</tspan><tspan y="52.8" x="38.7">接入oss api</tspan></text></g><g transform="translate(359.75,85.50)" id="shape11"><path d="M145.4,65.5L145.4,7.0C145.4,3.1,142.2,.0,138.4,.0L7.0,.0C3.1,.0,.0,3.1,.0,7.0L.0,65.5C.0,69.4,3.1,72.5,7.0,72.5L138.4,72.5C142.2,72.5,145.4,69.4,145.4,65.5z" stroke="#323232" fill-rule="nonzero" fill="#aad3f5"/><text xml:space="preserve" style="fill:#191919;font-family:Microsoft YaHei;font-size:10.00pt"><tspan y="32.8" style="font-size:12.00pt;font-weight:bold" x="40.7">配置信息</tspan><tspan y="52.8" x="20.7">服务端缓存的配置</tspan></text></g></g><g transform="translate(919.00,760.50)" id="group12"><path d="M493.6,182.0L493.6,7.0C493.6,3.1,490.4,.0,486.6,.0L7.0,.0C3.1,.0,.0,3.1,.0,7.0L.0,182.0C.0,185.9,3.1,189.0,7.0,189.0L486.6,189.0C490.4,189.0,493.6,185.9,493.6,182.0z" stroke="#323232" transform="translate(-35.26,0.00)" fill-rule="nonzero" fill="#ffffff" id="shape13"/><g transform="translate(86.84,-21.80)" id="shape14"><path d="M22.0,44.0L224.8,44.0L224.8,44.0C237.0,44.0,246.8,34.2,246.8,22.0C246.8,9.8,237.0,.0,224.8,.0L22.0,.0L22.0,.0C9.8,.0,.0,9.8,.0,22.0C.0,34.2,9.8,44.0,22.0,44.0z" stroke="#323232" fill-rule="nonzero" fill="#00aeee"/><text xml:space="preserve" style="fill:#191919;font-family:Microsoft YaHei;font-size:14.00pt;font-weight:bold"><tspan y="29.0" x="50.9">websocket 服务</tspan></text></g><g transform="translate(-5.66,85.50)" id="shape15"><path d="M128.7,70.0L128.7,7.0C128.7,3.1,125.5,.0,121.7,.0L7.0,.0C3.1,.0,.0,3.1,.0,7.0L.0,70.0C.0,73.9,3.1,77.0,7.0,77.0L121.7,77.0C125.5,77.0,128.7,73.9,128.7,70.0z" stroke="#323232" fill-rule="nonzero" fill="#aad3f5"/><text xml:space="preserve" style="fill:#191919;font-family:Microsoft YaHei;font-size:10.00pt"><tspan y="35.0" style="font-size:12.00pt;font-weight:bold" x="40.3">云构建</tspan><tspan y="55.0" x="25.3">完成云端构建</tspan></text></g><g transform="translate(137.41,85.50)" id="shape16"><path d="M126.6,65.5L126.6,7.0C126.6,3.1,123.5,.0,119.6,.0L7.0,.0C3.1,.0,.0,3.1,.0,7.0L.0,65.5C.0,69.4,3.1,72.5,7.0,72.5L119.6,72.5C123.5,72.5,126.6,69.4,126.6,65.5z" stroke="#323232" fill-rule="nonzero" fill="#aad3f5"/><text xml:space="preserve" style="fill:#191919;font-family:Microsoft YaHei;font-size:10.00pt"><tspan y="32.8" style="font-size:12.00pt;font-weight:bold" x="39.3">云发布</tspan><tspan y="52.8" x="24.3">完成云端发布</tspan></text></g><g transform="translate(283.00,85.50)" id="shape17"><path d="M156.0,65.5L156.0,7.0C156.0,3.1,152.9,.0,149.0,.0L7.0,.0C3.1,.0,.0,3.1,.0,7.0L.0,65.5C.0,69.4,3.1,72.5,7.0,72.5L149.0,72.5C152.9,72.5,156.0,69.4,156.0,65.5z" stroke="#323232" fill-rule="nonzero" fill="#aad3f5"/><text xml:space="preserve" style="fill:#191919;font-family:Microsoft YaHei;font-size:10.00pt"><tspan y="32.8" style="font-size:12.00pt;font-weight:bold" x="46.0">发布模式</tspan><tspan y="52.8" x="6.5">支持测试和正式环境发布</tspan></text></g></g><g transform="translate(276.38,128.50)" id="shape18"><path d="M15.0,53.0L15.0,7.0C15.0,3.1,11.9,.0,8.0,.0L7.0,.0C3.1,.0,.0,3.1,.0,7.0L.0,53.0C.0,56.9,3.1,60.0,7.0,60.0L8.0,60.0C11.9,60.0,15.0,56.9,15.0,53.0z" stroke="#323232" fill-rule="nonzero" fill="#ffffff"/><text xml:space="preserve" style="fill:#191919;font-family:Microsoft YaHei;font-size:10.00pt"><tspan y="35.5" x="2.0">fs</tspan></text></g><g transform="translate(276.38,366.00)" id="shape19"><path d="M15.0,66.0L15.0,7.0C15.0,3.1,11.9,.0,8.0,.0L7.0,.0C3.1,.0,.0,3.1,.0,7.0L.0,66.0C.0,69.9,3.1,73.0,7.0,73.0L8.0,73.0C11.9,73.0,15.0,69.9,15.0,66.0z" stroke="#323232" fill-rule="nonzero" fill="#ffffff"/><text xml:space="preserve" style="fill:#191919;font-family:Microsoft YaHei;font-size:10.00pt"><tspan y="23.0" x="3.5">n</tspan><tspan y="42.0" x="3.5">p</tspan><tspan y="61.0" x="1.5">m</tspan></text></g><g transform="translate(276.38,402.50)" id="shape20"><path stroke="#191919" d="M.0,.0L-36.0,.0" fill="none"/><path stroke="#191919" d="M-36.0,3.0L-42.0,.0L-36.0,-3.0L-36.0,3.0" stroke-width="1" stroke-linecap="round" fill="#191919"/></g><g transform="translate(333.00,401.50)" id="shape21"><path stroke="#191919" d="M.0,.0L-36.0,.0" fill="none"/><path stroke="#191919" d="M-36.0,3.0L-42.0,.0L-36.0,-3.0L-36.0,3.0" stroke-width="1" stroke-linecap="round" fill="#191919"/></g><g transform="translate(1410.00,591.00)" id="shape22"><path d="M15.0,66.0L15.0,7.0C15.0,3.1,11.9,.0,8.0,.0L7.0,.0C3.1,.0,.0,3.1,.0,7.0L.0,66.0C.0,69.9,3.1,73.0,7.0,73.0L8.0,73.0C11.9,73.0,15.0,69.9,15.0,66.0z" stroke="#323232" fill-rule="nonzero" fill="#ffffff"/><text xml:space="preserve" style="fill:#191919;font-family:Microsoft YaHei;font-size:10.00pt"><tspan y="23.0" x="3.0">A</tspan><tspan y="42.0" x="3.5">P</tspan><tspan y="61.0" x="5.5">I</tspan></text></g><g transform="translate(1377.29,855.00)" id="shape23"><path stroke="#191919" d="M.0,.0L39.0,.0L39.0,-185.0" fill="none"/><path stroke="#191919" d="M36.0,-185.0L39.0,-191.0L42.0,-185.0L36.0,-185.0" stroke-width="1" stroke-linecap="round" fill="#191919"/></g><g transform="translate(1417.50,591.00)" id="shape24"><path stroke="#191919" d="M.0,.0L.0,-60.0L75.0,-60.0" fill="none"/><path stroke="#191919" d="M75.0,-63.0L81.0,-60.0L75.0,-57.0L75.0,-63.0" stroke-width="1" stroke-linecap="round" fill="#191919"/></g><g transform="translate(390.00,285.00)" id="group25"><path d="M491.0,182.0L491.0,7.0C491.0,3.1,487.9,.0,484.0,.0L7.0,.0C3.1,.0,.0,3.1,.0,7.0L.0,182.0C.0,185.9,3.1,189.0,7.0,189.0L484.0,189.0C487.9,189.0,491.0,185.9,491.0,182.0z" stroke="#323232" transform="translate(-57.00,22.00)" fill-rule="nonzero" fill="#ffffff" id="shape26"/><g transform="translate(63.05,0.00)" id="shape27"><path d="M22.0,44.0L238.5,44.0L238.5,44.0C250.7,44.0,260.5,34.2,260.5,22.0C260.5,9.8,250.7,.0,238.5,.0L22.0,.0L22.0,.0C9.8,.0,.0,9.8,.0,22.0C.0,34.2,9.8,44.0,22.0,44.0z" stroke="#323232" fill-rule="nonzero" fill="#df7746"/><text xml:space="preserve" style="fill:#191919;font-family:Microsoft YaHei;font-size:14.00pt;font-weight:bold"><tspan y="29.0" x="82.8">初始化体系</tspan></text></g><g transform="translate(-35.10,111.00)" id="shape28"><path d="M125.3,66.0L125.3,7.0C125.3,3.1,122.1,.0,118.3,.0L7.0,.0C3.1,.0,.0,3.1,.0,7.0L.0,66.0C.0,69.9,3.1,73.0,7.0,73.0L118.3,73.0C122.1,73.0,125.3,69.9,125.3,66.0z" stroke="#323232" fill-rule="nonzero" fill="#ffce80"/><text xml:space="preserve" style="fill:#191919;font-family:Microsoft YaHei;font-size:10.00pt"><tspan y="33.0" style="font-size:12.00pt;font-weight:bold" x="22.6">项目初始化</tspan><tspan y="53.0" x="17.1">项目初始化支持</tspan></text></g><g transform="translate(107.37,110.00)" id="shape29"><path d="M132.6,66.0L132.6,7.0C132.6,3.1,129.5,.0,125.6,.0L7.0,.0C3.1,.0,.0,3.1,.0,7.0L.0,66.0C.0,69.9,3.1,73.0,7.0,73.0L125.6,73.0C129.5,73.0,132.6,69.9,132.6,66.0z" stroke="#323232" fill-rule="nonzero" fill="#ffce80"/><text xml:space="preserve" style="fill:#191919;font-family:Microsoft YaHei;font-size:10.00pt"><tspan y="33.0" style="font-size:12.00pt;font-weight:bold" x="26.3">组件初始化</tspan><tspan y="53.0" x="20.8">组件初始化支持</tspan></text></g><g transform="translate(255.32,110.00)" id="shape30"><path d="M155.9,66.0L155.9,7.0C155.9,3.1,152.8,.0,148.9,.0L7.0,.0C3.1,.0,.0,3.1,.0,7.0L.0,66.0C.0,69.9,3.1,73.0,7.0,73.0L148.9,73.0C152.8,73.0,155.9,69.9,155.9,66.0z" stroke="#323232" fill-rule="nonzero" fill="#ffce80"/><text xml:space="preserve" style="fill:#191919;font-family:Microsoft YaHei;font-size:10.00pt"><tspan y="33.0" style="font-size:12.00pt;font-weight:bold" x="38.0">初始化模式</tspan><tspan y="53.0" x="26.0">标准和自定义模式</tspan></text></g></g><g transform="translate(410.40,339.00)" id="shape31"><text xml:space="preserve" style="fill:#191919;font-family:Microsoft YaHei UI;font-size:9.00pt;font-weight:bold"><tspan y="29.5" x="33.0">项目/组件 初始化解决方案，支持</tspan><tspan style="fill:#e54648" x="211.0">标准和自定义</tspan><tspan x="283.0">模式</tspan></text></g><g transform="translate(937.98,352.00)" id="shape32"><text xml:space="preserve" style="fill:#191919;font-family:Microsoft YaHei UI;font-size:9.00pt;font-weight:bold"><tspan y="29.5" x="45.0">项目/组件 发布解决方案，支持</tspan><tspan style="fill:#e54648" x="211.0">正式和测试</tspan><tspan x="271.0">模式</tspan></text></g><g transform="translate(1416.75,119.00)" id="shape33"><path d="M40.0,66.0L40.0,7.0C40.0,3.1,36.9,.0,33.0,.0L7.0,.0C3.1,.0,.0,3.1,.0,7.0L.0,66.0C.0,69.9,3.1,73.0,7.0,73.0L33.0,73.0C36.9,73.0,40.0,69.9,40.0,66.0z" stroke="#323232" fill-rule="nonzero" fill="#ffffff"/><text xml:space="preserve" style="fill:#191919;font-family:Microsoft YaHei;font-size:10.00pt"><tspan y="23.0" x="10.0">git </tspan><tspan y="42.0" x="4.5">open</tspan><tspan y="61.0" x="11.0">api</tspan></text></g><g transform="translate(1374.74,155.50)" id="shape34"><path stroke="#191919" d="M.0,.0L36.0,.0" fill="none"/><path stroke="#191919" d="M36.0,-3.0L42.0,.0L36.0,3.0L36.0,-3.0" stroke-width="1" stroke-linecap="round" fill="#191919"/></g><g transform="translate(379.24,786.00)" id="shape35"><text xml:space="preserve" style="fill:#191919;font-family:Microsoft YaHei UI;font-size:9.00pt;font-weight:bold"><tspan y="29.5" x="100.5">支撑初</tspan><tspan style="fill:#e54648" x="136.5">始化体系</tspan><tspan x="184.5">的标准api</tspan></text></g><g transform="translate(956.96,786.00)" id="shape36"><text xml:space="preserve" style="fill:#191919;font-family:Microsoft YaHei UI;font-size:9.00pt;font-weight:bold"><tspan y="29.5" x="104.0">支撑</tspan><tspan style="fill:#e54648" x="128.0">发布体系</tspan><tspan x="176.0">的核心服务</tspan></text></g><path d="M195.5,258.0L195.5,7.0C195.5,3.1,192.4,.0,188.5,.0L7.0,.0C3.1,.0,.0,3.1,.0,7.0L.0,258.0C.0,261.9,3.1,265.0,7.0,265.0L188.5,265.0C192.4,265.0,195.5,261.9,195.5,258.0z" stroke="#323232" transform="translate(39.25,722.50)" fill-rule="nonzero" fill="#ffffff" id="shape37"/><g transform="translate(64.00,697.00)" id="shape38"><path d="M21.0,42.0L123.0,42.0L123.0,42.0C134.6,42.0,144.0,32.6,144.0,21.0C144.0,9.4,134.6,.0,123.0,.0L21.0,.0L21.0,.0C9.4,.0,.0,9.4,.0,21.0C.0,32.6,9.4,42.0,21.0,42.0z" stroke="#323232" fill-rule="nonzero" fill="#e1a822"/><text xml:space="preserve" style="fill:#191919;font-family:Microsoft YaHei;font-size:14.00pt;font-weight:bold"><tspan y="28.5" x="34.0">数据体系</tspan></text></g><g transform="translate(87.00,825.00)" id="shape39"><path d="M100.0,53.0L100.0,7.0C100.0,3.1,96.9,.0,93.0,.0L7.0,.0C3.1,.0,.0,3.1,.0,7.0L.0,53.0C.0,56.9,3.1,60.0,7.0,60.0L93.0,60.0C96.9,60.0,100.0,56.9,100.0,53.0z" stroke="#323232" fill-rule="nonzero" fill="#ffe8cd"/><text xml:space="preserve" style="fill:#191919;font-family:Microsoft YaHei;font-size:10.00pt"><tspan y="26.5" style="font-size:12.00pt;font-weight:bold" x="21.5">MySQL</tspan><tspan y="46.5" x="11.0">组件信息存储</tspan></text></g><g transform="translate(87.00,909.00)" id="shape40"><path d="M100.0,53.0L100.0,7.0C100.0,3.1,96.9,.0,93.0,.0L7.0,.0C3.1,.0,.0,3.1,.0,7.0L.0,53.0C.0,56.9,3.1,60.0,7.0,60.0L93.0,60.0C96.9,60.0,100.0,56.9,100.0,53.0z" stroke="#323232" fill-rule="nonzero" fill="#ffe8cd"/><text xml:space="preserve" style="fill:#191919;font-family:Microsoft YaHei;font-size:12.00pt;font-weight:bold"><tspan y="26.5" x="8.5">MongoDB</tspan><tspan y="46.5" style="font-size:10.00pt;font-weight:normal" x="11.0">项目信息存储</tspan></text></g><g transform="translate(69.00,760.00)" id="shape41"><text xml:space="preserve" style="fill:#191919;font-family:Microsoft YaHei UI;font-size:9.00pt;font-weight:bold"><tspan y="29.5" x="12.0">支持</tspan><tspan style="fill:#ff0000" x="36.0">标准和自定义</tspan><tspan x="108.0">模式</tspan></text></g><g transform="translate(333.00,534.00)" id="shape42"><path d="M1041.7,33.0L1041.7,7.0C1041.7,3.1,1038.6,.0,1034.7,.0L7.0,.0C3.1,.0,.0,3.1,.0,7.0L.0,33.0C.0,36.9,3.1,40.0,7.0,40.0L1034.7,40.0C1038.6,40.0,1041.7,36.9,1041.7,33.0z" stroke="#323232" fill-rule="nonzero" fill="#83ebdc"/><text xml:space="preserve" style="fill:#191919;font-family:Microsoft YaHei;font-size:12.00pt"><tspan y="26.5" x="145.9">一站式前端研发工作台</tspan><tspan style="font-size:10.00pt" x="305.9"> 面向前端开发工程师，创建标准SOP标准研发工作流，沉淀前端研发最佳实践，快速接入项目产生价值</tspan></text></g><g transform="translate(39.25,289.00)" id="group43"><path d="M195.5,258.0L195.5,7.0C195.5,3.1,192.4,.0,188.5,.0L7.0,.0C3.1,.0,.0,3.1,.0,7.0L.0,258.0C.0,261.9,3.1,265.0,7.0,265.0L188.5,265.0C192.4,265.0,195.5,261.9,195.5,258.0z" stroke="#323232" transform="translate(0.00,20.00)" fill-rule="nonzero" fill="#ffffff" id="shape44"/><g transform="translate(25.75,0.00)" id="shape45"><path d="M21.0,42.0L123.0,42.0L123.0,42.0C134.6,42.0,144.0,32.6,144.0,21.0C144.0,9.4,134.6,.0,123.0,.0L21.0,.0L21.0,.0C9.4,.0,.0,9.4,.0,21.0C.0,32.6,9.4,42.0,21.0,42.0z" stroke="#323232" fill-rule="nonzero" fill="#e1a822"/><text xml:space="preserve" style="fill:#191919;font-family:Microsoft YaHei;font-size:14.00pt;font-weight:bold"><tspan y="28.0" x="43.5">模板库</tspan></text></g><g transform="translate(47.75,122.00)" id="shape46"><path d="M100.0,53.0L100.0,7.0C100.0,3.1,96.9,.0,93.0,.0L7.0,.0C3.1,.0,.0,3.1,.0,7.0L.0,53.0C.0,56.9,3.1,60.0,7.0,60.0L93.0,60.0C96.9,60.0,100.0,56.9,100.0,53.0z" stroke="#323232" fill-rule="nonzero" fill="#ffe8cd"/><text xml:space="preserve" style="fill:#191919;font-family:Microsoft YaHei;font-size:10.00pt"><tspan y="26.5" style="font-size:12.00pt;font-weight:bold" x="18.0">项目模板</tspan><tspan y="46.5" x="11.0">标准项目模板</tspan></text></g><g transform="translate(47.75,207.15)" id="shape47"><path d="M100.0,53.0L100.0,7.0C100.0,3.1,96.9,.0,93.0,.0L7.0,.0C3.1,.0,.0,3.1,.0,7.0L.0,53.0C.0,56.9,3.1,60.0,7.0,60.0L93.0,60.0C96.9,60.0,100.0,56.9,100.0,53.0z" stroke="#323232" fill-rule="nonzero" fill="#ffe8cd"/><text xml:space="preserve" style="fill:#191919;font-family:Microsoft YaHei;font-size:10.00pt"><tspan y="26.5" style="font-size:12.00pt;font-weight:bold" x="18.0">组件模板</tspan><tspan y="46.5" x="11.0">标准组件模板</tspan></text></g><g transform="translate(25.75,57.00)" id="shape48"><text xml:space="preserve" style="fill:#191919;font-family:Microsoft YaHei UI;font-size:9.00pt;font-weight:bold"><tspan y="29.5" x="18.0">支持</tspan><tspan style="fill:#e54648" x="42.0">项目和组件</tspan><tspan x="102.0">模板</tspan></text></g></g><g transform="translate(456.00,633.00)" id="shape49"><path d="M803.0,33.0L803.0,7.0C803.0,3.1,799.9,.0,796.0,.0L7.0,.0C3.1,.0,.0,3.1,.0,7.0L.0,33.0C.0,36.9,3.1,40.0,7.0,40.0L796.0,40.0C799.9,40.0,803.0,36.9,803.0,33.0z" stroke="#323232" fill-rule="nonzero" fill="#ffffff"/><text xml:space="preserve" style="fill:#191919;font-family:Microsoft YaHei;font-size:10.00pt"><tspan y="25.5" x="323.5">提供前后端分离的标准服务</tspan></text></g><g transform="translate(87.00,624.00)" id="shape50"><path d="M11.5,23.0L88.5,23.0L88.5,23.0C94.9,23.0,100.0,17.9,100.0,11.5C100.0,5.1,94.9,.0,88.5,.0L11.5,.0L11.5,.0C5.1,.0,.0,5.1,.0,11.5C.0,17.9,5.1,23.0,11.5,23.0z" stroke="#323232" fill-rule="nonzero" fill="#ffffff"/><text xml:space="preserve" style="fill:#191919;font-family:Microsoft YaHei;font-size:10.00pt"><tspan y="17.0" x="41.0">DB</tspan></text></g><g transform="translate(136.00,697.00)" id="shape51"><path stroke="#191919" d="M.0,.0L.0,-44.0" fill="none"/><path stroke="#191919" d="M-3.0,-44.0L.0,-50.0L3.0,-44.0L-3.0,-44.0" stroke-width="1" stroke-linecap="round" fill="#191919"/></g><g transform="translate(137.00,624.00)" id="shape52"><path stroke="#191919" d="M.0,.0L.0,-44.0" fill="none"/><path stroke="#191919" d="M-3.0,-44.0L.0,-50.0L3.0,-44.0L-3.0,-44.0" stroke-width="1" stroke-linecap="round" fill="#191919"/></g><path d="M195.5,182.0L195.5,7.0C195.5,3.1,192.4,.0,188.5,.0L7.0,.0C3.1,.0,.0,3.1,.0,7.0L.0,182.0C.0,185.9,3.1,189.0,7.0,189.0L188.5,189.0C192.4,189.0,195.5,185.9,195.5,182.0z" stroke="#323232" transform="translate(39.25,64.00)" fill-rule="nonzero" fill="#ffffff" id="shape53"/><g transform="translate(65.00,51.00)" id="shape54"><path d="M21.0,42.0L123.0,42.0L123.0,42.0C134.6,42.0,144.0,32.6,144.0,21.0C144.0,9.4,134.6,.0,123.0,.0L21.0,.0L21.0,.0C9.4,.0,.0,9.4,.0,21.0C.0,32.6,9.4,42.0,21.0,42.0z" stroke="#323232" fill-rule="nonzero" fill="#e1a822"/><text xml:space="preserve" style="fill:#191919;font-family:Microsoft YaHei;font-size:14.00pt;font-weight:bold"><tspan y="28.0" x="15.0">本地缓存体系</tspan></text></g><g transform="translate(61.00,174.00)" id="shape55"><path d="M152.0,53.0L152.0,7.0C152.0,3.1,148.9,.0,145.0,.0L7.0,.0C3.1,.0,.0,3.1,.0,7.0L.0,53.0C.0,56.9,3.1,60.0,7.0,60.0L145.0,60.0C148.9,60.0,152.0,56.9,152.0,53.0z" stroke="#323232" fill-rule="nonzero" fill="#ffe8cd"/><text xml:space="preserve" style="fill:#191919;font-family:Microsoft YaHei;font-size:10.00pt"><tspan y="26.5" style="font-size:12.00pt;font-weight:bold" x="4.5">本地文件&amp;环境变量</tspan><tspan y="46.5" x="24.0">接入本地文件体系</tspan></text></g><g transform="translate(61.00,108.50)" id="shape56"><text xml:space="preserve" style="fill:#191919;font-family:Microsoft YaHei UI;font-size:9.00pt;font-weight:bold"><tspan y="29.5" x="12.0">操作系统本地缓存系统</tspan></text></g><path d="M491.0,182.0L491.0,7.0C491.0,3.1,487.9,.0,484.0,.0L7.0,.0C3.1,.0,.0,3.1,.0,7.0L.0,182.0C.0,185.9,3.1,189.0,7.0,189.0L484.0,189.0C487.9,189.0,491.0,185.9,491.0,182.0z" stroke="#323232" transform="translate(333.00,61.00)" fill-rule="nonzero" fill="#ffffff" id="shape57"/><g transform="translate(354.90,156.50)" id="shape58"><path d="M139.8,69.0L139.8,7.0C139.8,3.1,136.6,.0,132.8,.0L7.0,.0C3.1,.0,.0,3.1,.0,7.0L.0,69.0C.0,72.9,3.1,76.0,7.0,76.0L132.8,76.0C136.6,76.0,139.8,72.9,139.8,69.0z" stroke="#323232" fill-rule="nonzero" fill="#ffce80"/><text xml:space="preserve" style="fill:#191919;font-family:Microsoft YaHei;font-size:10.00pt"><tspan y="34.5" style="font-size:12.00pt;font-weight:bold" x="37.9">执行准备</tspan><tspan y="54.5" x="4.9">操坐系统执行准备阶段</tspan></text></g><g transform="translate(504.46,155.50)" id="shape59"><path d="M139.1,69.0L139.1,7.0C139.1,3.1,136.0,.0,132.1,.0L7.0,.0C3.1,.0,.0,3.1,.0,7.0L.0,69.0C.0,72.9,3.1,76.0,7.0,76.0L132.1,76.0C136.0,76.0,139.1,72.9,139.1,69.0z" stroke="#323232" fill-rule="nonzero" fill="#ffce80"/><text xml:space="preserve" style="fill:#191919;font-family:Microsoft YaHei;font-size:10.00pt"><tspan y="34.5" style="font-size:12.00pt;font-weight:bold" x="37.5">命令注册</tspan><tspan y="54.5" x="11.0">完成脚手架命令注册</tspan></text></g><g transform="translate(653.33,156.50)" id="shape60"><path d="M147.9,69.0L147.9,7.0C147.9,3.1,144.8,.0,140.9,.0L7.0,.0C3.1,.0,.0,3.1,.0,7.0L.0,69.0C.0,72.9,3.1,76.0,7.0,76.0L140.9,76.0C144.8,76.0,147.9,72.9,147.9,69.0z" stroke="#323232" fill-rule="nonzero" fill="#ffce80"/><text xml:space="preserve" style="fill:#191919;font-family:Microsoft YaHei;font-size:10.00pt"><tspan y="34.5" style="font-size:12.00pt;font-weight:bold" x="42.0">命令执行</tspan><tspan y="54.5" x="15.5">标准的命令执行流程</tspan></text></g><g transform="translate(443.41,39.00)" id="shape61"><path d="M22.0,44.0L248.2,44.0L248.2,44.0C260.3,44.0,270.2,34.2,270.2,22.0C270.2,9.8,260.3,.0,248.2,.0L22.0,.0L22.0,.0C9.8,.0,.0,9.8,.0,22.0C.0,34.2,9.8,44.0,22.0,44.0z" stroke="#323232" fill-rule="nonzero" fill="#df7746"/><text xml:space="preserve" style="fill:#191919;font-family:Microsoft YaHei;font-size:14.00pt;font-weight:bold"><tspan y="29.0" x="68.6">脚手架核心框架</tspan></text></g><g transform="translate(359.58,98.50)" id="shape62"><text xml:space="preserve" style="fill:#191919;font-family:Microsoft YaHei UI;font-size:9.00pt;font-weight:bold"><tspan y="29.5" x="58.8">脚手架运行框架，完成脚手架执行准备，命令注册和命令执行</tspan></text></g><g transform="translate(276.38,158.50)" id="shape63"><path stroke="#191919" d="M.0,.0L-36.0,.0" fill="none"/><path stroke="#191919" d="M-36.0,3.0L-42.0,.0L-36.0,-3.0L-36.0,3.0" stroke-width="1" stroke-linecap="round" fill="#191919"/></g><g transform="translate(333.00,158.65)" id="shape64"><path stroke="#191919" d="M.0,.0L-36.0,.0" fill="none"/><path stroke="#191919" d="M-36.0,3.0L-42.0,.0L-36.0,-3.0L-36.0,3.0" stroke-width="1" stroke-linecap="round" fill="#191919"/></g><g transform="translate(1362.68,30.50)" id="group65"/><g transform="translate(883.74,39.00)" id="group66"><path d="M491.0,182.0L491.0,7.0C491.0,3.1,487.9,.0,484.0,.0L7.0,.0C3.1,.0,.0,3.1,.0,7.0L.0,182.0C.0,185.9,3.1,189.0,7.0,189.0L484.0,189.0C487.9,189.0,491.0,185.9,491.0,182.0z" stroke="#323232" transform="translate(0.00,22.00)" fill-rule="nonzero" fill="#ffffff" id="shape67"/><g transform="translate(110.41,0.00)" id="shape68"><path d="M22.0,44.0L248.2,44.0L248.2,44.0C260.3,44.0,270.2,34.2,270.2,22.0C270.2,9.8,260.3,.0,248.2,.0L22.0,.0L22.0,.0C9.8,.0,.0,9.8,.0,22.0C.0,34.2,9.8,44.0,22.0,44.0z" stroke="#323232" fill-rule="nonzero" fill="#df7746"/><text xml:space="preserve" style="fill:#191919;font-family:Microsoft YaHei;font-size:14.00pt;font-weight:bold"><tspan y="29.0" x="64.6">标准git操作体系</tspan></text></g><g transform="translate(18.37,116.50)" id="shape69"><path d="M129.9,68.0L129.9,7.0C129.9,3.1,126.8,.0,122.9,.0L7.0,.0C3.1,.0,.0,3.1,.0,7.0L.0,68.0C.0,71.9,3.1,75.0,7.0,75.0L122.9,75.0C126.8,75.0,129.9,71.9,129.9,68.0z" stroke="#323232" fill-rule="nonzero" fill="#ffce80"/><text xml:space="preserve" style="fill:#191919;font-family:Microsoft YaHei;font-size:10.00pt"><tspan y="34.0" style="font-size:12.00pt;font-weight:bold" x="32.9">仓库管理</tspan><tspan y="54.0" x="6.4">本地和远程仓库创建</tspan></text></g><g transform="translate(170.27,117.50)" id="shape70"><path d="M129.9,66.0L129.9,7.0C129.9,3.1,126.8,.0,122.9,.0L7.0,.0C3.1,.0,.0,3.1,.0,7.0L.0,66.0C.0,69.9,3.1,73.0,7.0,73.0L122.9,73.0C126.8,73.0,129.9,69.9,129.9,66.0z" stroke="#323232" fill-rule="nonzero" fill="#ffce80"/><text xml:space="preserve" style="fill:#191919;font-family:Microsoft YaHei;font-size:10.00pt"><tspan y="33.0" style="font-size:12.00pt;font-weight:bold" x="32.9">开发模式</tspan><tspan y="53.0" x="25.9">生成开发分支</tspan></text></g><g transform="translate(315.31,116.50)" id="shape71"><path d="M157.9,68.0L157.9,7.0C157.9,3.1,154.8,.0,150.9,.0L7.0,.0C3.1,.0,.0,3.1,.0,7.0L.0,68.0C.0,71.9,3.1,75.0,7.0,75.0L150.9,75.0C154.8,75.0,157.9,71.9,157.9,68.0z" stroke="#323232" fill-rule="nonzero" fill="#ffce80"/><text xml:space="preserve" style="fill:#191919;font-family:Microsoft YaHei;font-size:10.00pt"><tspan y="34.0" style="font-size:12.00pt;font-weight:bold" x="46.9">发布模式</tspan><tspan y="54.0" x="10.4">删除开发分支并生成tag</tspan></text></g><g transform="translate(24.65,59.50)" id="shape72"><text xml:space="preserve" style="fill:#191919;font-family:Microsoft YaHei UI;font-size:9.00pt;font-weight:bold"><tspan y="29.5" x="147.3">项目/组件 标准git操作方案</tspan></text></g></g><g transform="translate(274.52,854.13)" id="shape73"><path stroke="#191919" d="M.0,.0L-34.0,.0" fill="none"/><path stroke="#191919" d="M-34.0,3.0L-40.0,.0L-34.0,-3.0L-34.0,3.0" stroke-width="1" stroke-linecap="round" fill="#191919"/></g><g transform="translate(1498.76,48.00)" id="group74"><path d="M195.5,182.0L195.5,7.0C195.5,3.1,192.4,.0,188.5,.0L7.0,.0C3.1,.0,.0,3.1,.0,7.0L.0,182.0C.0,185.9,3.1,189.0,7.0,189.0L188.5,189.0C192.4,189.0,195.5,185.9,195.5,182.0z" stroke="#323232" transform="translate(0.00,13.00)" fill-rule="nonzero" fill="#ffffff" id="shape75"/><g transform="translate(25.75,0.00)" id="shape76"><path d="M21.0,42.0L123.0,42.0L123.0,42.0C134.6,42.0,144.0,32.6,144.0,21.0C144.0,9.4,134.6,.0,123.0,.0L21.0,.0L21.0,.0C9.4,.0,.0,9.4,.0,21.0C.0,32.6,9.4,42.0,21.0,42.0z" stroke="#323232" fill-rule="nonzero" fill="#e1a822"/><text xml:space="preserve" style="fill:#191919;font-family:Microsoft YaHei;font-size:14.00pt;font-weight:bold"><tspan y="28.0" x="34.0">代码仓库</tspan></text></g><g transform="translate(21.75,57.50)" id="shape77"><text xml:space="preserve" style="fill:#191919;font-family:Microsoft YaHei UI;font-size:9.00pt;font-weight:bold"><tspan y="29.5" x="24.0">支撑远程代码存储</tspan></text></g><g transform="translate(42.76,123.00)" id="shape78"><path d="M110.0,53.0L110.0,7.0C110.0,3.1,106.8,.0,103.0,.0L7.0,.0C3.1,.0,.0,3.1,.0,7.0L.0,53.0C.0,56.9,3.1,60.0,7.0,60.0L103.0,60.0C106.8,60.0,110.0,56.9,110.0,53.0z" stroke="#323232" fill-rule="nonzero" fill="#ffe8cd"/><text xml:space="preserve" style="fill:#191919;font-family:Microsoft YaHei;font-size:12.00pt;font-weight:bold"><tspan y="36.0" x="31.0">gitlab</tspan></text></g></g><g transform="translate(1456.75,155.50)" id="shape79"><path stroke="#191919" d="M.0,.0L36.0,.0" fill="none"/><path stroke="#191919" d="M36.0,-3.0L42.0,.0L36.0,3.0L36.0,-3.0" stroke-width="1" stroke-linecap="round" fill="#191919"/></g><g transform="translate(1498.76,377.00)" id="group80"><path d="M213.2,258.0L213.2,7.0C213.2,3.1,210.1,.0,206.2,.0L7.0,.0C3.1,.0,.0,3.1,.0,7.0L.0,258.0C.0,261.9,3.1,265.0,7.0,265.0L206.2,265.0C210.1,265.0,213.2,261.9,213.2,258.0z" stroke="#323232" transform="translate(0.00,22.00)" fill-rule="nonzero" fill="#ffffff" id="shape81"/><g transform="translate(28.09,0.00)" id="shape82"><path d="M21.0,42.0L136.1,42.0L136.1,42.0C147.7,42.0,157.1,32.6,157.1,21.0C157.1,9.4,147.7,.0,136.1,.0L21.0,.0L21.0,.0C9.4,.0,.0,9.4,.0,21.0C.0,32.6,9.4,42.0,21.0,42.0z" stroke="#323232" fill-rule="nonzero" fill="#e1a822"/><text xml:space="preserve" style="fill:#191919;font-family:Microsoft YaHei;font-size:14.00pt;font-weight:bold"><tspan y="28.0" x="40.5">资源体系</tspan></text></g><g transform="translate(52.08,116.00)" id="shape83"><path d="M109.1,53.0L109.1,7.0C109.1,3.1,105.9,.0,102.1,.0L7.0,.0C3.1,.0,.0,3.1,.0,7.0L.0,53.0C.0,56.9,3.1,60.0,7.0,60.0L102.1,60.0C105.9,60.0,109.1,56.9,109.1,53.0z" stroke="#323232" fill-rule="nonzero" fill="#ffe8cd"/><text xml:space="preserve" style="fill:#191919;font-family:Microsoft YaHei;font-size:10.00pt"><tspan y="26.5" style="font-size:12.00pt;font-weight:bold" x="38.0">OSS</tspan><tspan y="46.5" x="15.5">前端资源文件</tspan></text></g><g transform="translate(52.08,201.00)" id="shape84"><path d="M109.1,53.0L109.1,7.0C109.1,3.1,105.9,.0,102.1,.0L7.0,.0C3.1,.0,.0,3.1,.0,7.0L.0,53.0C.0,56.9,3.1,60.0,7.0,60.0L102.1,60.0C105.9,60.0,109.1,56.9,109.1,53.0z" stroke="#323232" fill-rule="nonzero" fill="#ffe8cd"/><text xml:space="preserve" style="fill:#191919;font-family:Microsoft YaHei;font-size:10.00pt"><tspan y="26.5" style="font-size:12.00pt;font-weight:bold" x="35.5">CDN</tspan><tspan y="46.5" x="15.5">静态资源加速</tspan></text></g><g transform="translate(27.95,54.00)" id="shape85"><text xml:space="preserve" style="fill:#191919;font-family:Microsoft YaHei UI;font-size:9.00pt;font-weight:bold"><tspan y="29.5" x="12.7">支撑发布的</tspan><tspan style="fill:#e54648" x="72.7">前端资源</tspan><tspan x="120.7">体系</tspan></text></g></g><g transform="translate(1498.76,749.25)" id="group86"><path d="M213.2,258.0L213.2,7.0C213.2,3.1,210.1,.0,206.2,.0L7.0,.0C3.1,.0,.0,3.1,.0,7.0L.0,258.0C.0,261.9,3.1,265.0,7.0,265.0L206.2,265.0C210.1,265.0,213.2,261.9,213.2,258.0z" stroke="#323232" transform="translate(0.00,22.50)" fill-rule="nonzero" fill="#ffffff" id="shape87"/><g transform="translate(28.09,0.00)" id="shape88"><path d="M21.0,42.0L136.1,42.0L136.1,42.0C147.7,42.0,157.1,32.6,157.1,21.0C157.1,9.4,147.7,.0,136.1,.0L21.0,.0L21.0,.0C9.4,.0,.0,9.4,.0,21.0C.0,32.6,9.4,42.0,21.0,42.0z" stroke="#323232" fill-rule="nonzero" fill="#e1a822"/><text xml:space="preserve" style="fill:#191919;font-family:Microsoft YaHei;font-size:14.00pt;font-weight:bold"><tspan y="28.0" x="21.5">远程缓存体系</tspan></text></g><g transform="translate(52.08,113.75)" id="shape89"><path d="M109.1,53.0L109.1,7.0C109.1,3.1,105.9,.0,102.1,.0L7.0,.0C3.1,.0,.0,3.1,.0,7.0L.0,53.0C.0,56.9,3.1,60.0,7.0,60.0L102.1,60.0C105.9,60.0,109.1,56.9,109.1,53.0z" stroke="#323232" fill-rule="nonzero" fill="#ffe8cd"/><text xml:space="preserve" style="fill:#191919;font-family:Microsoft YaHei;font-size:10.00pt"><tspan y="26.5" style="font-size:12.00pt;font-weight:bold" x="32.5">Redis</tspan><tspan y="46.5" x="15.5">发布任务缓存</tspan></text></g><g transform="translate(52.08,196.00)" id="shape90"><path d="M109.1,53.0L109.1,7.0C109.1,3.1,105.9,.0,102.1,.0L7.0,.0C3.1,.0,.0,3.1,.0,7.0L.0,53.0C.0,56.9,3.1,60.0,7.0,60.0L102.1,60.0C105.9,60.0,109.1,56.9,109.1,53.0z" stroke="#323232" fill-rule="nonzero" fill="#ffe8cd"/><text xml:space="preserve" style="fill:#191919;font-family:Microsoft YaHei;font-size:10.00pt"><tspan y="26.5" style="font-size:12.00pt;font-weight:bold" x="14.5">服务器缓存</tspan><tspan y="46.5" x="9.0">服务端代码缓存</tspan></text></g><g transform="translate(27.95,54.70)" id="shape91"><text xml:space="preserve" style="fill:#191919;font-family:Microsoft YaHei UI;font-size:9.00pt;font-weight:bold"><tspan y="29.5" x="24.7">支撑发布的</tspan><tspan style="fill:#e54648" x="84.7">缓存</tspan><tspan x="108.7">体系</tspan></text></g></g><g transform="translate(537.63,740.00)" id="shape92"><path stroke="#191919" d="M.0,.0L.0,-61.0" fill="none"/><path stroke="#191919" d="M-3.0,-61.0L.0,-67.0L3.0,-61.0L-3.0,-61.0" stroke-width="1" stroke-linecap="round" fill="#191919"/></g><g transform="translate(538.74,633.00)" id="shape93"><path stroke="#191919" d="M.0,.0L.0,-53.0" fill="none"/><path stroke="#191919" d="M-3.0,-53.0L.0,-59.0L3.0,-53.0L-3.0,-53.0" stroke-width="1" stroke-linecap="round" fill="#191919"/></g><g transform="translate(1126.60,738.70)" id="shape94"><path stroke="#191919" d="M.0,.0L.0,-59.0" fill="none"/><path stroke="#191919" d="M-3.0,-59.0L.0,-65.0L3.0,-59.0L-3.0,-59.0" stroke-width="1" stroke-linecap="round" fill="#191919"/></g><g transform="translate(1125.76,633.00)" id="shape95"><path stroke="#191919" d="M.0,.0L.0,-53.0" fill="none"/><path stroke="#191919" d="M-3.0,-53.0L.0,-59.0L3.0,-53.0L-3.0,-53.0" stroke-width="1" stroke-linecap="round" fill="#191919"/></g><g transform="translate(1377.29,904.70)" id="shape96"><path stroke="#191919" d="M.0,.0L114.0,.0" fill="none"/><path stroke="#191919" d="M114.0,-3.0L120.0,.0L114.0,3.0L114.0,-3.0" stroke-width="1" stroke-linecap="round" fill="#191919"/></g></g></svg>