<svg width="869" height="1330" xmlns:xlink="http://www.w3.org/1999/xlink" viewBox="0 0 869 1330" xmlns="http://www.w3.org/2000/svg" xmlns:ev="http://www.w3.org/2001/xml-events"><defs/><g transform="translate(5.5,5.5)" id="page1"><rect y="0" width="859" height="1320" x="0" fill="#ffffff"/><path d="M746.5,1235.4L746.5,.0L.0,.0L.0,1235.4L746.5,1235.4z" stroke="#323232" transform="translate(73.25,45.60)" fill-rule="nonzero" fill="#ffffff" id="shape1"/><g transform="translate(39.00,39.00)" id="shape2"><text xml:space="preserve" style="fill:#191919;font-family:Microsoft YaHei;font-size:14.00pt;font-weight:bold"><tspan y="47.0" x="39.5">core</tspan></text></g><path d="M677.0,208.5L677.0,.0L.0,.0L.0,208.5L677.0,208.5z" stroke="#323232" transform="translate(108.00,104.50)" fill-rule="nonzero" fill="#ffffff" id="shape3"/><g transform="translate(92.00,95.00)" id="shape4"><text xml:space="preserve" style="fill:#191919;font-family:Microsoft YaHei;font-size:12.00pt;font-weight:bold"><tspan y="29.8" x="28.5">prepare</tspan></text></g><g transform="translate(127.00,152.00)" id="shape5"><path d="M120.0,38.0L120.0,.0L.0,.0L.0,38.0L120.0,38.0z" stroke="#323232" fill-rule="nonzero" fill="#ffce80"/><text xml:space="preserve" style="fill:#191919;font-family:Microsoft YaHei;font-size:10.00pt"><tspan y="24.5" x="27.5">检查版本号</tspan></text></g><g transform="translate(297.00,152.00)" id="shape6"><path d="M120.0,38.0L120.0,.0L.0,.0L.0,38.0L120.0,38.0z" stroke="#323232" fill-rule="nonzero" fill="#ffce80"/><text xml:space="preserve" style="fill:#191919;font-family:Microsoft YaHei;font-size:10.00pt"><tspan y="24.5" x="18.5">检查node版本</tspan></text></g><g transform="translate(467.00,152.00)" id="shape7"><path d="M120.0,38.0L120.0,.0L.0,.0L.0,38.0L120.0,38.0z" stroke="#323232" fill-rule="nonzero" fill="#ffce80"/><text xml:space="preserve" style="fill:#191919;font-family:Microsoft YaHei;font-size:10.00pt"><tspan y="24.5" x="21.0">检查root启动</tspan></text></g><g transform="translate(637.00,152.00)" id="shape8"><path d="M120.0,38.0L120.0,.0L.0,.0L.0,38.0L120.0,38.0z" stroke="#323232" fill-rule="nonzero" fill="#ffce80"/><text xml:space="preserve" style="fill:#191919;font-family:Microsoft YaHei;font-size:10.00pt"><tspan y="24.5" x="14.5">检查用户主目录</tspan></text></g><g transform="translate(247.00,171.00)" id="shape9"><path stroke="#191919" d="M.0,.0L44.0,.0" fill="none"/><path stroke="#191919" d="M44.0,-3.0L50.0,.0L44.0,3.0L44.0,-3.0" stroke-width="1" stroke-linecap="round" fill="#191919"/></g><g transform="translate(417.00,171.00)" id="shape10"><path stroke="#191919" d="M.0,.0L44.0,.0" fill="none"/><path stroke="#191919" d="M44.0,-3.0L50.0,.0L44.0,3.0L44.0,-3.0" stroke-width="1" stroke-linecap="round" fill="#191919"/></g><g transform="translate(587.00,171.00)" id="shape11"><path stroke="#191919" d="M.0,.0L44.0,.0" fill="none"/><path stroke="#191919" d="M44.0,-3.0L50.0,.0L44.0,3.0L44.0,-3.0" stroke-width="1" stroke-linecap="round" fill="#191919"/></g><g transform="translate(699.52,190.00)" id="shape12"><path stroke="#191919" d="M.0,.0L.0,41.0" fill="none"/><path stroke="#191919" d="M3.0,41.0L.0,47.0L-3.0,41.0L3.0,41.0" stroke-width="1" stroke-linecap="round" fill="#191919"/></g><g transform="translate(639.00,237.00)" id="shape13"><path d="M120.0,38.0L120.0,.0L.0,.0L.0,38.0L120.0,38.0z" stroke="#323232" fill-rule="nonzero" fill="#ffce80"/><text xml:space="preserve" style="fill:#191919;font-family:Microsoft YaHei;font-size:10.00pt"><tspan y="24.5" x="34.0">检查入参</tspan></text></g><g transform="translate(467.00,237.00)" id="shape14"><path d="M120.0,38.0L120.0,.0L.0,.0L.0,38.0L120.0,38.0z" stroke="#323232" fill-rule="nonzero" fill="#ffce80"/><text xml:space="preserve" style="fill:#191919;font-family:Microsoft YaHei;font-size:10.00pt"><tspan y="24.5" x="21.0">检查环境变量</tspan></text></g><g transform="translate(127.00,237.00)" id="shape15"><path d="M120.0,38.0L120.0,.0L.0,.0L.0,38.0L120.0,38.0z" stroke="#323232" fill-rule="nonzero" fill="#aad3f5"/><text xml:space="preserve" style="fill:#191919;font-family:Microsoft YaHei;font-size:10.00pt"><tspan y="24.5" x="34.0">提示更新</tspan></text></g><g transform="translate(639.00,256.00)" id="shape16"><path stroke="#191919" d="M.0,.0L-46.0,.0" fill="none"/><path stroke="#191919" d="M-46.0,3.0L-52.0,.0L-46.0,-3.0L-46.0,3.0" stroke-width="1" stroke-linecap="round" fill="#191919"/></g><g transform="translate(297.00,205.56)" id="shape17"><path d="M60.0,100.9L120.0,50.4L60.0,.0L.0,50.4L60.0,100.9z" stroke="#323232" fill-rule="nonzero" fill="#df7746"/><text xml:space="preserve" style="fill:#191919;font-family:Microsoft YaHei;font-size:10.00pt"><tspan y="46.4" x="27.5">检查是否伟</tspan><tspan y="65.4" x="34.0">最新版本</tspan></text></g><g transform="translate(467.00,256.00)" id="shape18"><path stroke="#191919" d="M.0,.0L-44.0,.0" fill="none"/><path stroke="#191919" d="M-44.0,3.0L-50.0,.0L-44.0,-3.0L-44.0,3.0" stroke-width="1" stroke-linecap="round" fill="#191919"/></g><g transform="translate(297.00,256.00)" id="shape19"><path stroke="#191919" d="M.0,.0L-44.0,.0" fill="none"/><path stroke="#191919" d="M-44.0,3.0L-50.0,.0L-44.0,-3.0L-44.0,3.0" stroke-width="1" stroke-linecap="round" fill="#191919"/><rect y="-9.5" width="11.0" height="19.0" x="-27.2" fill="#ffffff"/><text xml:space="preserve" style="fill:#191919;font-family:Microsoft YaHei;font-size:10.00pt"><tspan y="5.5" x="-27.2">N</tspan></text></g><path d="M677.0,104.0L677.0,.0L.0,.0L.0,104.0L677.0,104.0z" stroke="#323232" transform="translate(108.00,341.00)" fill-rule="nonzero" fill="#ffffff" id="shape20"/><g transform="translate(92.00,329.75)" id="shape21"><text xml:space="preserve" style="fill:#191919;font-family:Microsoft YaHei;font-size:12.00pt;font-weight:bold"><tspan y="36.5" x="25.0">registerCommand</tspan></text></g><g transform="translate(127.00,388.00)" id="shape22"><path d="M120.0,38.0L120.0,.0L.0,.0L.0,38.0L120.0,38.0z" stroke="#323232" fill-rule="nonzero" fill="#ffce80"/><text xml:space="preserve" style="fill:#191919;font-family:Microsoft YaHei;font-size:10.00pt"><tspan y="24.5" x="24.5">注册init命令</tspan></text></g><g transform="translate(297.00,388.00)" id="shape23"><path d="M120.0,38.0L120.0,.0L.0,.0L.0,38.0L120.0,38.0z" stroke="#323232" fill-rule="nonzero" fill="#ffce80"/><text xml:space="preserve" style="fill:#191919;font-family:Microsoft YaHei;font-size:10.00pt"><tspan y="24.5" x="12.0">注册publish命令</tspan></text></g><g transform="translate(467.00,388.00)" id="shape24"><path d="M120.0,38.0L120.0,.0L.0,.0L.0,38.0L120.0,38.0z" stroke="#323232" fill-rule="nonzero" fill="#ffce80"/><text xml:space="preserve" style="fill:#191919;font-family:Microsoft YaHei;font-size:10.00pt"><tspan y="24.5" x="18.0">注册clean命令</tspan></text></g><g transform="translate(637.00,388.00)" id="shape25"><path d="M120.0,38.0L120.0,.0L.0,.0L.0,38.0L120.0,38.0z" stroke="#323232" fill-rule="nonzero" fill="#ffce80"/><text xml:space="preserve" style="fill:#191919;font-family:Microsoft YaHei;font-size:10.00pt"><tspan y="24.5" x="27.5">支持debug</tspan></text></g><g transform="translate(247.00,407.00)" id="shape26"><path stroke="#191919" d="M.0,.0L44.0,.0" fill="none"/><path stroke="#191919" d="M44.0,-3.0L50.0,.0L44.0,3.0L44.0,-3.0" stroke-width="1" stroke-linecap="round" fill="#191919"/></g><g transform="translate(417.00,407.00)" id="shape27"><path stroke="#191919" d="M.0,.0L44.0,.0" fill="none"/><path stroke="#191919" d="M44.0,-3.0L50.0,.0L44.0,3.0L44.0,-3.0" stroke-width="1" stroke-linecap="round" fill="#191919"/></g><g transform="translate(587.00,407.00)" id="shape28"><path stroke="#191919" d="M.0,.0L44.0,.0" fill="none"/><path stroke="#191919" d="M44.0,-3.0L50.0,.0L44.0,3.0L44.0,-3.0" stroke-width="1" stroke-linecap="round" fill="#191919"/></g><path d="M677.0,746.0L677.0,.0L.0,.0L.0,746.0L677.0,746.0z" stroke="#323232" transform="translate(108.00,483.00)" fill-rule="nonzero" fill="#ffffff" id="shape29"/><g transform="translate(88.50,473.00)" id="shape30"><text xml:space="preserve" style="fill:#191919;font-family:Microsoft YaHei;font-size:12.00pt;font-weight:bold"><tspan y="36.5" x="39.0">execCommand</tspan></text></g><g transform="translate(150.00,530.00)" id="shape31"><path d="M81.0,21.0L81.0,7.0C81.0,3.1,77.9,.0,74.0,.0L7.0,.0C3.1,.0,.0,3.1,.0,7.0L.0,21.0C.0,24.9,3.1,28.0,7.0,28.0L74.0,28.0C77.9,28.0,81.0,24.9,81.0,21.0z" stroke="#323232" fill-rule="nonzero" fill="#92d050"/><text xml:space="preserve" style="fill:#191919;font-family:Microsoft YaHei;font-size:10.00pt"><tspan y="19.5" x="26.5">start</tspan></text></g><g transform="translate(140.50,584.97)" id="shape32"><path d="M50.0,71.9L100.0,35.9L50.0,.0L.0,35.9L50.0,71.9z" stroke="#323232" fill-rule="nonzero" fill="#df7746"/><text xml:space="preserve" style="fill:#191919;font-family:Microsoft YaHei;font-size:10.00pt"><tspan y="31.9" x="24.0">是否执行</tspan><tspan y="50.9" x="24.0">本地代码</tspan></text></g><g transform="translate(297.00,601.91)" id="shape33"><path d="M120.0,38.0L120.0,.0L.0,.0L.0,38.0L120.0,38.0z" stroke="#323232" fill-rule="nonzero" fill="#ffce80"/><text xml:space="preserve" style="fill:#191919;font-family:Microsoft YaHei;font-size:10.00pt"><tspan y="24.5" x="21.0">获取缓存目录</tspan></text></g><g transform="translate(467.00,601.91)" id="shape34"><path d="M158.0,38.0L158.0,.0L.0,.0L.0,38.0L158.0,38.0z" stroke="#323232" fill-rule="nonzero" fill="#ffce80"/><text xml:space="preserve" style="fill:#191919;font-family:Microsoft YaHei;font-size:10.00pt"><tspan y="24.5" x="21.0">初始化Package对象</tspan></text></g><g transform="translate(189.23,558.00)" id="shape35"><path stroke="#191919" d="M.0,.0L.0,20.0" fill="none"/><path stroke="#191919" d="M3.0,20.0L.0,26.0L-3.0,20.0L3.0,20.0" stroke-width="1" stroke-linecap="round" fill="#191919"/></g><g transform="translate(240.50,620.91)" id="shape36"><path stroke="#191919" d="M.0,.0L51.0,.0" fill="none"/><path stroke="#191919" d="M51.0,-3.0L57.0,.0L51.0,3.0L51.0,-3.0" stroke-width="1" stroke-linecap="round" fill="#191919"/><rect y="-9.5" width="11.0" height="19.0" x="25.8" fill="#ffffff"/><text xml:space="preserve" style="fill:#191919;font-family:Microsoft YaHei;font-size:10.00pt"><tspan y="5.5" x="25.8">N</tspan></text></g><g transform="translate(417.00,620.91)" id="shape37"><path stroke="#191919" d="M.0,.0L44.0,.0" fill="none"/><path stroke="#191919" d="M44.0,-3.0L50.0,.0L44.0,3.0L44.0,-3.0" stroke-width="1" stroke-linecap="round" fill="#191919"/></g><g transform="translate(495.00,691.06)" id="shape38"><path d="M50.0,71.9L100.0,35.9L50.0,.0L.0,35.9L50.0,71.9z" stroke="#323232" fill-rule="nonzero" fill="#df7746"/><text xml:space="preserve" style="fill:#191919;font-family:Microsoft YaHei;font-size:10.00pt"><tspan y="31.9" x="24.5">Package</tspan><tspan y="50.9" x="24.0">是否存在</tspan></text></g><g transform="translate(297.00,708.00)" id="shape39"><path d="M120.0,38.0L120.0,.0L.0,.0L.0,38.0L120.0,38.0z" stroke="#323232" fill-rule="nonzero" fill="#ffce80"/><text xml:space="preserve" style="fill:#191919;font-family:Microsoft YaHei;font-size:10.00pt"><tspan y="24.5" x="21.5">安装Package</tspan></text></g><g transform="translate(130.50,700.94)" id="shape40"><path d="M120.0,54.0L120.0,.0L.0,.0L.0,54.0L120.0,54.0z" stroke="#323232" fill-rule="nonzero" fill="#ffce80"/><text xml:space="preserve" style="fill:#191919;font-family:Microsoft YaHei;font-size:10.00pt"><tspan y="23.0" x="21.0">获取本地代码</tspan><tspan y="42.0" x="34.0">入口文件</tspan></text></g><g transform="translate(656.00,708.00)" id="shape41"><path d="M120.0,38.0L120.0,.0L.0,.0L.0,38.0L120.0,38.0z" stroke="#323232" fill-rule="nonzero" fill="#ffce80"/><text xml:space="preserve" style="fill:#191919;font-family:Microsoft YaHei;font-size:10.00pt"><tspan y="24.5" x="21.5">更新Package</tspan></text></g><g transform="translate(545.05,639.91)" id="shape42"><path stroke="#191919" d="M.0,.0L.0,46.0" fill="none"/><path stroke="#191919" d="M3.0,46.0L.0,52.0L-3.0,46.0L3.0,46.0" stroke-width="1" stroke-linecap="round" fill="#191919"/></g><g transform="translate(495.00,727.00)" id="shape43"><path stroke="#191919" d="M.0,.0L-72.0,.0" fill="none"/><path stroke="#191919" d="M-72.0,3.0L-78.0,.0L-72.0,-3.0L-72.0,3.0" stroke-width="1" stroke-linecap="round" fill="#191919"/><rect y="-9.5" width="11.0" height="19.0" x="-39.3" fill="#ffffff"/><text xml:space="preserve" style="fill:#191919;font-family:Microsoft YaHei;font-size:10.00pt"><tspan y="5.5" x="-39.3">N</tspan></text></g><g transform="translate(297.00,727.00)" id="shape44"><path stroke="#191919" d="M.0,.0L-41.0,.0" fill="none"/><path stroke="#191919" d="M-41.0,3.0L-47.0,.0L-41.0,-3.0L-41.0,3.0" stroke-width="1" stroke-linecap="round" fill="#191919"/></g><g transform="translate(595.00,727.00)" id="shape45"><path stroke="#191919" d="M.0,.0L55.0,.0" fill="none"/><path stroke="#191919" d="M55.0,-3.0L61.0,.0L55.0,3.0L55.0,-3.0" stroke-width="1" stroke-linecap="round" fill="#191919"/><rect y="-9.5" width="8.0" height="19.0" x="33.9" fill="#ffffff"/><text xml:space="preserve" style="fill:#191919;font-family:Microsoft YaHei;font-size:10.00pt"><tspan y="5.5" x="33.9">Y</tspan></text></g><g transform="translate(190.50,656.84)" id="shape46"><path stroke="#191919" d="M.0,.0L.0,37.0" fill="none"/><path stroke="#191919" d="M3.0,37.0L.0,43.0L-3.0,37.0L3.0,37.0" stroke-width="1" stroke-linecap="round" fill="#191919"/><rect y="7.5" width="8.0" height="19.0" x="-3.0" fill="#ffffff"/><text xml:space="preserve" style="fill:#191919;font-family:Microsoft YaHei;font-size:10.00pt"><tspan y="22.5" x="-3.0">Y</tspan></text></g><g transform="translate(716.24,746.00)" id="shape47"><path stroke="#191919" d="" fill="none"/></g><g transform="translate(717.20,746.00)" id="shape48"><path stroke="#191919" d="M.0,.0L.0,44.0L-487.0,44.0L-487.0,14.0" fill="none"/><path stroke="#191919" d="M-490.0,14.0L-487.0,8.0L-484.0,14.0L-490.0,14.0" stroke-width="1" stroke-linecap="round" fill="#191919"/></g><g transform="translate(140.50,834.06)" id="shape49"><path d="M50.0,71.9L100.0,35.9L50.0,.0L.0,35.9L50.0,71.9z" stroke="#323232" fill-rule="nonzero" fill="#df7746"/><text xml:space="preserve" style="fill:#191919;font-family:Microsoft YaHei;font-size:10.00pt"><tspan y="31.9" x="24.0">入口文件</tspan><tspan y="50.9" x="24.0">是否存在</tspan></text></g><g transform="translate(297.00,843.00)" id="shape50"><path d="M120.0,54.0L120.0,.0L.0,.0L.0,54.0L120.0,54.0z" stroke="#323232" fill-rule="nonzero" fill="#ffce80"/><text xml:space="preserve" style="fill:#191919;font-family:Microsoft YaHei;font-size:10.00pt"><tspan y="23.0" x="34.0">生成指令</tspan><tspan y="42.0" x="34.0">执行代码</tspan></text></g><g transform="translate(477.00,843.00)" id="shape51"><path d="M120.0,54.0L120.0,.0L.0,.0L.0,54.0L120.0,54.0z" stroke="#323232" fill-rule="nonzero" fill="#ffce80"/><text xml:space="preserve" style="fill:#191919;font-family:Microsoft YaHei;font-size:10.00pt"><tspan y="23.0" x="27.5">启动新进程</tspan><tspan y="42.0" x="34.0">执行代码</tspan></text></g><g transform="translate(190.26,754.94)" id="shape52"><path stroke="#191919" d="M.0,.0L.0,74.0" fill="none"/><path stroke="#191919" d="M3.0,74.0L.0,80.0L-3.0,74.0L3.0,74.0" stroke-width="1" stroke-linecap="round" fill="#191919"/></g><g transform="translate(240.50,870.00)" id="shape53"><path stroke="#191919" d="M.0,.0L51.0,.0" fill="none"/><path stroke="#191919" d="M51.0,-3.0L57.0,.0L51.0,3.0L51.0,-3.0" stroke-width="1" stroke-linecap="round" fill="#191919"/></g><g transform="translate(417.00,870.00)" id="shape54"><path stroke="#191919" d="M.0,.0L54.0,.0" fill="none"/><path stroke="#191919" d="M54.0,-3.0L60.0,.0L54.0,3.0L54.0,-3.0" stroke-width="1" stroke-linecap="round" fill="#191919"/></g><g transform="translate(487.00,968.47)" id="shape55"><path d="M50.0,71.9L100.0,35.9L50.0,.0L.0,35.9L50.0,71.9z" stroke="#323232" fill-rule="nonzero" fill="#df7746"/><text xml:space="preserve" style="fill:#191919;font-family:Microsoft YaHei;font-size:10.00pt"><tspan y="31.9" x="24.0">执行产生</tspan><tspan y="50.9" x="37.0">异常</tspan></text></g><g transform="translate(297.00,977.41)" id="shape56"><path d="M120.0,54.0L120.0,.0L.0,.0L.0,54.0L120.0,54.0z" stroke="#323232" fill-rule="nonzero" fill="#ffce80"/><text xml:space="preserve" style="fill:#191919;font-family:Microsoft YaHei;font-size:10.00pt"><tspan y="23.0" x="34.0">执行完毕</tspan><tspan y="42.0" x="34.0">正常退出</tspan></text></g><g transform="translate(537.00,897.00)" id="shape57"><path stroke="#191919" d="M.0,.0L.0,65.0" fill="none"/><path stroke="#191919" d="M3.0,65.0L.0,71.0L-3.0,65.0L3.0,65.0" stroke-width="1" stroke-linecap="round" fill="#191919"/></g><g transform="translate(487.00,1004.41)" id="shape58"><path stroke="#191919" d="M.0,.0L-64.0,.0" fill="none"/><path stroke="#191919" d="M-64.0,3.0L-70.0,.0L-64.0,-3.0L-64.0,3.0" stroke-width="1" stroke-linecap="round" fill="#191919"/></g><g transform="translate(537.00,1040.35)" id="shape59"><path stroke="#191919" d="M.0,.0L.0,64.0" fill="none"/><path stroke="#191919" d="M3.0,64.0L.0,70.0L-3.0,64.0L3.0,64.0" stroke-width="1" stroke-linecap="round" fill="#191919"/><rect y="23.4" width="8.0" height="19.0" x="-3.0" fill="#ffffff"/><text xml:space="preserve" style="fill:#191919;font-family:Microsoft YaHei;font-size:10.00pt"><tspan y="38.4" x="-3.0">Y</tspan></text></g><g transform="translate(477.00,1111.81)" id="shape60"><path d="M120.0,54.0L120.0,.0L.0,.0L.0,54.0L120.0,54.0z" stroke="#323232" fill-rule="nonzero" fill="#ffce80"/><text xml:space="preserve" style="fill:#191919;font-family:Microsoft YaHei;font-size:10.00pt"><tspan y="23.0" x="34.0">终止执行</tspan><tspan y="42.0" x="34.0">打印异常</tspan></text></g><g transform="translate(307.00,1119.81)" id="shape61"><path d="M100.0,31.0L100.0,7.0C100.0,3.1,96.9,.0,93.0,.0L7.0,.0C3.1,.0,.0,3.1,.0,7.0L.0,31.0C.0,34.9,3.1,38.0,7.0,38.0L93.0,38.0C96.9,38.0,100.0,34.9,100.0,31.0z" stroke="#323232" fill-rule="nonzero" fill="#92d050"/><text xml:space="preserve" style="fill:#191919;font-family:Microsoft YaHei;font-size:10.00pt"><tspan y="24.5" x="38.5">end</tspan></text></g><g transform="translate(477.00,1138.81)" id="shape62"><path stroke="#191919" d="M.0,.0L-64.0,.0" fill="none"/><path stroke="#191919" d="M-64.0,3.0L-70.0,.0L-64.0,-3.0L-64.0,3.0" stroke-width="1" stroke-linecap="round" fill="#191919"/></g><g transform="translate(357.00,1031.41)" id="shape63"><path stroke="#191919" d="M.0,.0L.0,81.0" fill="none"/><path stroke="#191919" d="M3.0,81.0L.0,87.0L-3.0,81.0L3.0,81.0" stroke-width="1" stroke-linecap="round" fill="#191919"/></g><g transform="translate(130.50,1119.81)" id="shape64"><path d="M120.0,38.0L120.0,.0L.0,.0L.0,38.0L120.0,38.0z" stroke="#323232" fill-rule="nonzero" fill="#ffce80"/><text xml:space="preserve" style="fill:#191919;font-family:Microsoft YaHei;font-size:10.00pt"><tspan y="24.5" x="34.0">终止执行</tspan></text></g><g transform="translate(190.50,905.94)" id="shape65"><path stroke="#191919" d="M.0,.0L.0,208.0" fill="none"/><path stroke="#191919" d="M3.0,208.0L.0,214.0L-3.0,208.0L3.0,208.0" stroke-width="1" stroke-linecap="round" fill="#191919"/><rect y="86.6" width="11.0" height="19.0" x="-4.5" fill="#ffffff"/><text xml:space="preserve" style="fill:#191919;font-family:Microsoft YaHei;font-size:10.00pt"><tspan y="101.6" x="-4.5">N</tspan></text></g><g transform="translate(250.50,1138.81)" id="shape66"><path stroke="#191919" d="M.0,.0L51.0,.0" fill="none"/><path stroke="#191919" d="M51.0,-3.0L57.0,.0L51.0,3.0L51.0,-3.0" stroke-width="1" stroke-linecap="round" fill="#191919"/></g></g></svg>