<svg width="749" height="651" xmlns:xlink="http://www.w3.org/1999/xlink" viewBox="0 0 749 651" xmlns="http://www.w3.org/2000/svg" xmlns:ev="http://www.w3.org/2001/xml-events"><defs/><g transform="translate(5.5,5.5)" id="page1"><rect y="0" width="739" height="641" x="0" fill="#ffffff"/><g transform="translate(38.90,286.85)" id="shape1"><path d="M34.0,.0L196.7,.0C215.5,.0,230.7,15.2,230.7,34.0C230.7,52.8,215.5,68.0,196.7,68.0L34.0,68.0C15.2,68.0,.0,52.8,.0,34.0C.0,15.2,15.2,.0,34.0,.0z" stroke="#5a97fb" stroke-width="3" fill-rule="nonzero" fill="#5a97fb"/><text xml:space="preserve" style="fill:#ffffff;font-family:Microsoft YaHei;font-size:18.00pt;font-weight:bold"><tspan y="43.5" x="33.2">脚手架需求分析</tspan></text></g><path stroke="#454545" d="M-35.3,68.6C1.8,10.3,9.1,-102.6,89.2,-102.6" transform="translate(243.44,218.25)" stroke-width="3" stroke-linecap="round" fill="none" id="shape2"/><path stroke="#454545" d="M26.2,.0C47.9,.0,68.5,.0,89.2,.0" transform="translate(243.44,320.85)" stroke-width="3" stroke-linecap="round" fill="none" id="shape3"/><path stroke="#454545" d="M-35.3,-68.6C1.8,-10.3,9.1,102.6,89.2,102.6" transform="translate(243.44,423.45)" stroke-width="3" stroke-linecap="round" fill="none" id="shape4"/><path stroke="#454545" d="M-12.5,32.3C3.9,32.3,-9.9,-32.3,12.5,-32.3" transform="translate(453.12,288.53)" stroke-linecap="round" fill="none" id="shape5"/><path stroke="#454545" d="M-12.5,12.2C.3,12.2,-1.6,-12.2,12.5,-12.2" transform="translate(453.12,308.63)" stroke-linecap="round" fill="none" id="shape6"/><path stroke="#454545" d="M-12.5,-7.9C-0.7,-7.9,.7,7.9,12.5,7.9" transform="translate(453.12,328.73)" stroke-linecap="round" fill="none" id="shape7"/><path stroke="#454545" d="M-12.5,-28.0C3.3,-28.0,-8.5,28.0,12.5,28.0" transform="translate(453.12,348.83)" stroke-linecap="round" fill="none" id="shape8"/><path stroke="#454545" d="M-12.5,-48.1C5.0,-48.1,-12.5,48.1,12.5,48.1" transform="translate(453.12,368.93)" stroke-linecap="round" fill="none" id="shape9"/><path stroke="#454545" d="M-12.5,22.3C2.3,22.3,-6.3,-22.3,12.5,-22.3" transform="translate(566.12,93.38)" stroke-linecap="round" fill="none" id="shape10"/><path stroke="#454545" d="M-12.5,2.2C-2.0,2.2,3.8,-2.2,12.5,-2.2" transform="translate(566.12,113.48)" stroke-linecap="round" fill="none" id="shape11"/><path stroke="#454545" d="M-12.5,-17.9C1.5,-17.9,-4.3,17.9,12.5,17.9" transform="translate(566.12,133.58)" stroke-linecap="round" fill="none" id="shape12"/><path stroke="#454545" d="M-12.5,-38.0C4.5,-38.0,-11.3,38.0,12.5,38.0" transform="translate(566.12,153.68)" stroke-linecap="round" fill="none" id="shape13"/><path stroke="#454545" d="M-12.5,22.3C2.3,22.3,-6.3,-22.3,12.5,-22.3" transform="translate(528.12,503.77)" stroke-linecap="round" fill="none" id="shape14"/><path stroke="#454545" d="M-12.5,2.2C-2.0,2.2,3.8,-2.2,12.5,-2.2" transform="translate(528.12,523.88)" stroke-linecap="round" fill="none" id="shape15"/><path stroke="#454545" d="M-12.5,-17.9C1.5,-17.9,-4.3,17.9,12.5,17.9" transform="translate(528.12,543.98)" stroke-linecap="round" fill="none" id="shape16"/><path stroke="#454545" d="M-12.5,-38.0C4.5,-38.0,-11.3,38.0,12.5,38.0" transform="translate(528.12,564.08)" stroke-linecap="round" fill="none" id="shape17"/><g transform="translate(332.62,91.65)" id="shape18"><path d="M4.0,.0L217.0,.0C219.2,.0,221.0,1.8,221.0,4.0L221.0,44.0C221.0,46.2,219.2,48.0,217.0,48.0L4.0,48.0C1.8,48.0,.0,46.2,.0,44.0L.0,4.0C.0,1.8,1.8,.0,4.0,.0z" stroke="#454545" stroke-width="2" fill-rule="nonzero" fill="#ffffff"/><text xml:space="preserve" style="fill:#303030;font-family:Microsoft YaHei;font-size:14.00pt;font-weight:bold"><tspan y="31.0" x="23.3">创建项目 + 通用代码</tspan></text></g><g transform="translate(332.62,296.85)" id="shape19"><path d="M4.0,.0L104.0,.0C106.2,.0,108.0,1.8,108.0,4.0L108.0,44.0C108.0,46.2,106.2,48.0,104.0,48.0L4.0,48.0C1.8,48.0,.0,46.2,.0,44.0L.0,4.0C.0,1.8,1.8,.0,4.0,.0z" stroke="#454545" stroke-width="2" fill-rule="nonzero" fill="#ffffff"/><text xml:space="preserve" style="fill:#303030;font-family:Microsoft YaHei;font-size:14.00pt;font-weight:bold"><tspan y="31.0" x="23.3">git操作</tspan></text></g><g transform="translate(332.62,502.05)" id="shape20"><path d="M4.0,.0L179.0,.0C181.2,.0,183.0,1.8,183.0,4.0L183.0,44.0C183.0,46.2,181.2,48.0,179.0,48.0L4.0,48.0C1.8,48.0,.0,46.2,.0,44.0L.0,4.0C.0,1.8,1.8,.0,4.0,.0z" stroke="#454545" stroke-width="2" fill-rule="nonzero" fill="#ffffff"/><text xml:space="preserve" style="fill:#303030;font-family:Microsoft YaHei;font-size:14.00pt;font-weight:bold"><tspan y="31.0" x="23.3">构建 + 发布上线</tspan></text></g><g transform="translate(465.62,224.70)" id="shape21"><path d="M.0,.0L75.0,.0L75.0,31.5L.0,31.5L.0,.0z" fill-rule="nonzero" fill="#ffffff"/><path stroke="#454545" d="M.0,31.5L75.0,31.5" fill="none"/><text xml:space="preserve" style="fill:#303030;font-family:Microsoft YaHei;font-size:10.00pt"><tspan y="21.3" x="12.5">创建仓库</tspan></text></g><g transform="translate(465.62,264.90)" id="shape22"><path d="M.0,.0L75.0,.0L75.0,31.5L.0,31.5L.0,.0z" fill-rule="nonzero" fill="#ffffff"/><path stroke="#454545" d="M.0,31.5L75.0,31.5" fill="none"/><text xml:space="preserve" style="fill:#303030;font-family:Microsoft YaHei;font-size:10.00pt"><tspan y="21.3" x="12.5">代码冲突</tspan></text></g><g transform="translate(465.62,305.10)" id="shape23"><path d="M.0,.0L101.0,.0L101.0,31.5L.0,31.5L.0,.0z" fill-rule="nonzero" fill="#ffffff"/><path stroke="#454545" d="M.0,31.5L101.0,31.5" fill="none"/><text xml:space="preserve" style="fill:#303030;font-family:Microsoft YaHei;font-size:10.00pt"><tspan y="21.3" x="12.5">远程代码同步</tspan></text></g><g transform="translate(465.62,345.30)" id="shape24"><path d="M.0,.0L75.0,.0L75.0,31.5L.0,31.5L.0,.0z" fill-rule="nonzero" fill="#ffffff"/><path stroke="#454545" d="M.0,31.5L75.0,31.5" fill="none"/><text xml:space="preserve" style="fill:#303030;font-family:Microsoft YaHei;font-size:10.00pt"><tspan y="21.3" x="12.5">创建版本</tspan></text></g><g transform="translate(465.62,385.50)" id="shape25"><path d="M.0,.0L82.0,.0L82.0,31.5L.0,31.5L.0,.0z" fill-rule="nonzero" fill="#ffffff"/><path stroke="#454545" d="M.0,31.5L82.0,31.5" fill="none"/><text xml:space="preserve" style="fill:#303030;font-family:Microsoft YaHei;font-size:10.00pt"><tspan y="21.3" x="12.5">发布打tag</tspan></text></g><g transform="translate(578.62,39.60)" id="shape26"><path d="M.0,.0L49.0,.0L49.0,31.5L.0,31.5L.0,.0z" fill-rule="nonzero" fill="#ffffff"/><path stroke="#454545" d="M.0,31.5L49.0,31.5" fill="none"/><text xml:space="preserve" style="fill:#303030;font-family:Microsoft YaHei;font-size:10.00pt"><tspan y="21.3" x="12.5">埋点</tspan></text></g><g transform="translate(578.62,79.80)" id="shape27"><path d="M.0,.0L75.0,.0L75.0,31.5L.0,31.5L.0,.0z" fill-rule="nonzero" fill="#ffffff"/><path stroke="#454545" d="M.0,31.5L75.0,31.5" fill="none"/><text xml:space="preserve" style="fill:#303030;font-family:Microsoft YaHei;font-size:10.00pt"><tspan y="21.3" x="12.5">http请求</tspan></text></g><g transform="translate(578.62,120.00)" id="shape28"><path d="M.0,.0L75.0,.0L75.0,31.5L.0,31.5L.0,.0z" fill-rule="nonzero" fill="#ffffff"/><path stroke="#454545" d="M.0,31.5L75.0,31.5" fill="none"/><text xml:space="preserve" style="fill:#303030;font-family:Microsoft YaHei;font-size:10.00pt"><tspan y="21.3" x="12.5">工具方法</tspan></text></g><g transform="translate(578.62,160.20)" id="shape29"><path d="M.0,.0L62.0,.0L62.0,31.5L.0,31.5L.0,.0z" fill-rule="nonzero" fill="#ffffff"/><path stroke="#454545" d="M.0,31.5L62.0,31.5" fill="none"/><text xml:space="preserve" style="fill:#303030;font-family:Microsoft YaHei;font-size:10.00pt"><tspan y="21.3" x="12.5">组件库</tspan></text></g><g transform="translate(540.62,450.00)" id="shape30"><path d="M.0,.0L114.0,.0L114.0,31.5L.0,31.5L.0,.0z" fill-rule="nonzero" fill="#ffffff"/><path stroke="#454545" d="M.0,31.5L114.0,31.5" fill="none"/><text xml:space="preserve" style="fill:#303030;font-family:Microsoft YaHei;font-size:10.00pt"><tspan y="21.3" x="12.5">依赖安装和上线</tspan></text></g><g transform="translate(540.62,490.20)" id="shape31"><path d="M.0,.0L105.0,.0L105.0,31.5L.0,31.5L.0,.0z" fill-rule="nonzero" fill="#ffffff"/><path stroke="#454545" d="M.0,31.5L105.0,31.5" fill="none"/><text xml:space="preserve" style="fill:#303030;font-family:Microsoft YaHei;font-size:10.00pt"><tspan y="21.3" x="12.5">资源上传CDN</tspan></text></g><g transform="translate(540.62,530.40)" id="shape32"><path d="M.0,.0L75.0,.0L75.0,31.5L.0,31.5L.0,.0z" fill-rule="nonzero" fill="#ffffff"/><path stroke="#454545" d="M.0,31.5L75.0,31.5" fill="none"/><text xml:space="preserve" style="fill:#303030;font-family:Microsoft YaHei;font-size:10.00pt"><tspan y="21.3" x="12.5">域名绑定</tspan></text></g><g transform="translate(540.62,570.60)" id="shape33"><path d="M.0,.0L159.0,.0L159.0,31.5L.0,31.5L.0,.0z" fill-rule="nonzero" fill="#ffffff"/><path stroke="#454545" d="M.0,31.5L159.0,31.5" fill="none"/><text xml:space="preserve" style="fill:#303030;font-family:Microsoft YaHei;font-size:10.00pt"><tspan y="21.3" x="12.5">测试/正式等环境服务器</tspan></text></g></g></svg>