<svg width="854" height="744" xmlns:xlink="http://www.w3.org/1999/xlink" viewBox="0 0 854 744" xmlns="http://www.w3.org/2000/svg" xmlns:ev="http://www.w3.org/2001/xml-events"><defs/><g transform="translate(5.5,5.5)" id="page1"><rect y="0" width="844" height="734" x="0" fill="#ffffff"/><g transform="translate(247.00,39.00)" id="shape1"><path d="M147.0,54.0L147.0,.0L.0,.0L.0,54.0L147.0,54.0z" stroke="#323232" fill-rule="nonzero" fill="#ffce80"/><text xml:space="preserve" style="fill:#191919;font-family:Microsoft YaHei;font-size:10.00pt"><tspan y="32.5" x="28.0">脚手架启动阶段</tspan></text></g><g transform="translate(247.00,144.00)" id="shape2"><path d="M147.0,54.0L147.0,.0L.0,.0L.0,54.0L147.0,54.0z" stroke="#323232" fill-rule="nonzero" fill="#ffce80"/><text xml:space="preserve" style="fill:#191919;font-family:Microsoft YaHei;font-size:10.00pt"><tspan y="23.0" x="36.5">commander</tspan><tspan y="42.0" x="34.5">脚手架初始化</tspan></text></g><g transform="translate(247.00,249.00)" id="shape3"><path d="M147.0,54.0L147.0,.0L.0,.0L.0,54.0L147.0,54.0z" stroke="#323232" fill-rule="nonzero" fill="#ffce80"/><text xml:space="preserve" style="fill:#191919;font-family:Microsoft YaHei;font-size:10.00pt"><tspan y="23.0" x="47.5">动态加载</tspan><tspan y="42.0" x="32.0">initCommand</tspan></text></g><g transform="translate(247.00,354.00)" id="shape4"><path d="M147.0,54.0L147.0,.0L.0,.0L.0,54.0L147.0,54.0z" stroke="#323232" fill-rule="nonzero" fill="#ffce80"/><text xml:space="preserve" style="fill:#191919;font-family:Microsoft YaHei;font-size:10.00pt"><tspan y="32.5" x="17.5">new initCommand</tspan></text></g><g transform="translate(452.50,354.00)" id="shape5"><path d="M147.0,54.0L147.0,.0L.0,.0L.0,54.0L147.0,54.0z" stroke="#323232" fill-rule="nonzero" fill="#ffce80"/><text xml:space="preserve" style="fill:#191919;font-family:Microsoft YaHei;font-size:10.00pt"><tspan y="23.0" x="41.5">Command</tspan><tspan y="42.0" x="37.5">constructor</tspan></text></g><g transform="translate(452.50,454.00)" id="shape6"><path d="M147.0,54.0L147.0,.0L.0,.0L.0,54.0L147.0,54.0z" stroke="#323232" fill-rule="nonzero" fill="#ffce80"/><text xml:space="preserve" style="fill:#191919;font-family:Microsoft YaHei;font-size:10.00pt"><tspan y="32.5" x="34.5">命令准备阶段</tspan></text></g><g transform="translate(452.50,560.00)" id="shape7"><path d="M147.0,54.0L147.0,.0L.0,.0L.0,54.0L147.0,54.0z" stroke="#323232" fill-rule="nonzero" fill="#ffce80"/><text xml:space="preserve" style="fill:#191919;font-family:Microsoft YaHei;font-size:10.00pt"><tspan y="32.5" x="28.0">命令的执行阶段</tspan></text></g><g transform="translate(247.00,560.00)" id="shape8"><path d="M147.0,54.0L147.0,.0L.0,.0L.0,54.0L147.0,54.0z" stroke="#323232" fill-rule="nonzero" fill="#ffce80"/><text xml:space="preserve" style="fill:#191919;font-family:Microsoft YaHei;font-size:10.00pt"><tspan y="32.5" x="38.0">init业务逻辑</tspan></text></g><g transform="translate(658.00,560.00)" id="shape9"><path d="M147.0,54.0L147.0,.0L.0,.0L.0,54.0L147.0,54.0z" stroke="#323232" fill-rule="nonzero" fill="#dca2ff"/><text xml:space="preserve" style="fill:#191919;font-family:Microsoft YaHei;font-size:10.00pt"><tspan y="32.5" x="41.0">参数初始化</tspan></text></g><g transform="translate(658.00,454.00)" id="shape10"><path d="M147.0,54.0L147.0,.0L.0,.0L.0,54.0L147.0,54.0z" stroke="#323232" fill-rule="nonzero" fill="#dca2ff"/><text xml:space="preserve" style="fill:#191919;font-family:Microsoft YaHei;font-size:10.00pt"><tspan y="32.5" x="32.0">检查node版本</tspan></text></g><g transform="translate(39.00,39.00)" id="shape11"><path d="M147.0,54.0L147.0,.0L.0,.0L.0,54.0L147.0,54.0z" stroke="#323232" stroke-opacity="0.97" fill-rule="nonzero" fill="#dca2ff"/><text xml:space="preserve" style="fill:#191919;font-family:Microsoft YaHei;font-size:10.00pt"><tspan y="32.5" x="41.0">检查版本号</tspan></text></g><g transform="translate(39.00,144.00)" id="shape12"><path d="M147.0,54.0L147.0,.0L.0,.0L.0,54.0L147.0,54.0z" stroke="#323232" fill-rule="nonzero" fill="#dca2ff"/><text xml:space="preserve" style="fill:#191919;font-family:Microsoft YaHei;font-size:10.00pt"><tspan y="32.5" x="34.5">检查root启动</tspan></text></g><g transform="translate(39.00,249.00)" id="shape13"><path d="M147.0,54.0L147.0,.0L.0,.0L.0,54.0L147.0,54.0z" stroke="#323232" fill-rule="nonzero" fill="#dca2ff"/><text xml:space="preserve" style="fill:#191919;font-family:Microsoft YaHei;font-size:10.00pt"><tspan y="32.5" x="28.0">检查用户主目录</tspan></text></g><g transform="translate(39.00,354.00)" id="shape14"><path d="M147.0,54.0L147.0,.0L.0,.0L.0,54.0L147.0,54.0z" stroke="#323232" fill-rule="nonzero" fill="#dca2ff"/><text xml:space="preserve" style="fill:#191919;font-family:Microsoft YaHei;font-size:10.00pt"><tspan y="32.5" x="34.5">检查环境变量</tspan></text></g><g transform="translate(39.00,454.00)" id="shape15"><path d="M147.0,54.0L147.0,.0L.0,.0L.0,54.0L147.0,54.0z" stroke="#323232" fill-rule="nonzero" fill="#dca2ff"/><text xml:space="preserve" style="fill:#191919;font-family:Microsoft YaHei;font-size:10.00pt"><tspan y="32.5" x="28.0">检查cli最新版本</tspan></text></g><g transform="translate(247.00,66.00)" id="shape16"><path stroke="#191919" d="M.0,.0L-53.3,.0" stroke-width="2" fill="none" stroke-dasharray="2.5,2.5"/><path stroke="#191919" d="M-53.3,3.9L-61.0,.0L-53.3,-3.9L-53.3,3.9" stroke-width="1" stroke-linecap="round" fill="#191919"/></g><g transform="translate(320.50,93.00)" id="shape17"><path stroke="#191919" d="M.0,.0L.0,45.0" fill="none"/><path stroke="#191919" d="M3.0,45.0L.0,51.0L-3.0,45.0L3.0,45.0" stroke-width="1" stroke-linecap="round" fill="#191919"/></g><g transform="translate(320.50,198.00)" id="shape18"><path stroke="#191919" d="M.0,.0L.0,45.0" fill="none"/><path stroke="#191919" d="M3.0,45.0L.0,51.0L-3.0,45.0L3.0,45.0" stroke-width="1" stroke-linecap="round" fill="#191919"/></g><g transform="translate(320.50,303.00)" id="shape19"><path stroke="#191919" d="M.0,.0L.0,45.0" fill="none"/><path stroke="#191919" d="M3.0,45.0L.0,51.0L-3.0,45.0L3.0,45.0" stroke-width="1" stroke-linecap="round" fill="#191919"/></g><g transform="translate(394.00,381.00)" id="shape20"><path stroke="#191919" d="M.0,.0L52.0,.0" fill="none"/><path stroke="#191919" d="M52.0,-3.0L58.0,.0L52.0,3.0L52.0,-3.0" stroke-width="1" stroke-linecap="round" fill="#191919"/></g><g transform="translate(526.00,408.00)" id="shape21"><path stroke="#191919" d="M.0,.0L.0,40.0" fill="none"/><path stroke="#191919" d="M3.0,40.0L.0,46.0L-3.0,40.0L3.0,40.0" stroke-width="1" stroke-linecap="round" fill="#191919"/></g><g transform="translate(526.00,508.00)" id="shape22"><path stroke="#191919" d="M.0,.0L.0,46.0" fill="none"/><path stroke="#191919" d="M3.0,46.0L.0,52.0L-3.0,46.0L3.0,46.0" stroke-width="1" stroke-linecap="round" fill="#191919"/></g><g transform="translate(452.50,587.00)" id="shape23"><path stroke="#191919" d="M.0,.0L-52.0,.0" fill="none"/><path stroke="#191919" d="M-52.0,3.0L-58.0,.0L-52.0,-3.0L-52.0,3.0" stroke-width="1" stroke-linecap="round" fill="#191919"/></g><g transform="translate(599.50,481.00)" id="shape24"><path stroke="#191919" d="M.0,.0L53.0,.0" fill="none" stroke-dasharray="2.5,2.5"/><path stroke="#191919" d="M53.0,-3.0L59.0,.0L53.0,3.0L53.0,-3.0" stroke-width="1" stroke-linecap="round" fill="#191919"/></g><g transform="translate(731.50,508.00)" id="shape25"><path stroke="#191919" d="M.0,.0L.0,46.0" fill="none"/><path stroke="#191919" d="M3.0,46.0L.0,52.0L-3.0,46.0L3.0,46.0" stroke-width="1" stroke-linecap="round" fill="#191919"/></g><g transform="translate(270.50,656.00)" id="shape26"><path d="M100.0,32.0L100.0,7.0C100.0,3.1,96.9,.0,93.0,.0L7.0,.0C3.1,.0,.0,3.1,.0,7.0L.0,32.0C.0,35.9,3.1,39.0,7.0,39.0L93.0,39.0C96.9,39.0,100.0,35.9,100.0,32.0z" stroke="#323232" fill-rule="nonzero" fill="#3ca057"/><text xml:space="preserve" style="fill:#191919;font-family:Microsoft YaHei;font-size:10.00pt"><tspan y="25.0" x="38.5">end</tspan></text></g><g transform="translate(320.50,614.00)" id="shape27"><path stroke="#191919" d="M.0,.0L.0,36.0" fill="none"/><path stroke="#191919" d="M3.0,36.0L.0,42.0L-3.0,36.0L3.0,36.0" stroke-width="1" stroke-linecap="round" fill="#191919"/></g><g transform="translate(112.50,93.00)" id="shape28"><path stroke="#191919" d="M.0,.0L.0,45.0" fill="none"/><path stroke="#191919" d="M3.0,45.0L.0,51.0L-3.0,45.0L3.0,45.0" stroke-width="1" stroke-linecap="round" fill="#191919"/></g><g transform="translate(112.50,198.00)" id="shape29"><path stroke="#191919" d="M.0,.0L.0,45.0" fill="none"/><path stroke="#191919" d="M3.0,45.0L.0,51.0L-3.0,45.0L3.0,45.0" stroke-width="1" stroke-linecap="round" fill="#191919"/></g><g transform="translate(112.50,303.00)" id="shape30"><path stroke="#191919" d="M.0,.0L.0,45.0" fill="none"/><path stroke="#191919" d="M3.0,45.0L.0,51.0L-3.0,45.0L3.0,45.0" stroke-width="1" stroke-linecap="round" fill="#191919"/></g><g transform="translate(112.50,408.00)" id="shape31"><path stroke="#191919" d="M.0,.0L.0,40.0" fill="none"/><path stroke="#191919" d="M3.0,40.0L.0,46.0L-3.0,40.0L3.0,40.0" stroke-width="1" stroke-linecap="round" fill="#191919"/></g></g></svg>